<svg width="128" height="128" viewBox="0 0 128 128" fill="none" xmlns="http://www.w3.org/2000/svg">
<circle cx="64" cy="64" r="64" fill="#54C1BD"/>
<rect x="21.9178" y="24.6772" width="84.1644" height="84.1644" fill="white" fill-opacity="0.01"/>
<mask id="mask0_365_1537" style="mask-type:alpha" maskUnits="userSpaceOnUse" x="21" y="24" width="86" height="85">
<rect x="21.9178" y="24.6772" width="84.1644" height="84.1644" fill="white"/>
</mask>
<g mask="url(#mask0_365_1537)">
<path fill-rule="evenodd" clip-rule="evenodd" d="M63.9456 31.6909C49.4974 31.6909 37.6118 42.6119 36.0758 56.6498L29.4388 67.0676C28.3692 68.7404 29.0638 70.9709 30.8908 71.7389L35.8908 73.8485V84.2937C35.8908 88.1687 39.0295 91.3074 42.9045 91.3074H49.9182V101.828H81.4799V92.1498C81.4799 81.1734 85.931 78.1709 89.0415 72.595C86.6744 73.356 84.1543 73.7731 81.5347 73.7731C81.0051 73.7731 80.4819 73.726 79.9593 73.6909C77.3117 77.6221 74.4662 82.7304 74.4662 92.1498V94.8142H56.9319V84.2937H42.9045V69.1909L38.6169 67.3827L37.7744 67.0265L41.9867 60.4238L42.8635 59.0471L43.0415 57.4238C44.0305 48.4252 50.6032 41.3545 59.0758 39.3416C60.3418 36.4695 62.1369 33.8822 64.3498 31.7115C64.213 31.708 64.0789 31.6909 63.9456 31.6909V31.6909ZM78.1918 31.6909C77.7394 31.6909 77.3609 32.0297 77.3083 32.4786L76.8973 36.0265C75.2 36.6157 73.6682 37.5098 72.3356 38.6635L69.048 37.2389C68.6342 37.06 68.1491 37.2228 67.9247 37.6156L64.6439 43.3005C64.4194 43.6933 64.5224 44.1915 64.8836 44.458L67.7124 46.5539C67.5475 47.4166 67.4384 48.3065 67.4384 49.2183C67.4384 50.1301 67.544 51.0234 67.7124 51.8896L64.8836 53.9854C64.5224 54.2555 64.4159 54.7537 64.6439 55.143L67.9247 60.8279C68.1491 61.2207 68.6342 61.3766 69.048 61.1978L72.3356 59.78C73.6647 60.9302 75.2 61.8278 76.8973 62.417L77.3083 65.9649C77.3609 66.4208 77.7429 66.7594 78.1918 66.7594H84.7535C85.2058 66.7594 85.5844 66.4206 85.637 65.9717L86.048 62.4238C87.7453 61.8346 89.277 60.9406 90.6096 59.7868L93.8904 61.2115C94.3043 61.3903 94.7893 61.224 95.0137 60.8348L98.2946 55.1498C98.519 54.7571 98.4229 54.2588 98.0617 53.9923L95.2329 51.8896C95.3977 51.0234 95.5 50.137 95.5 49.2252C95.5 48.3134 95.3944 47.427 95.2261 46.5608L98.0548 44.458C98.416 44.188 98.5225 43.6898 98.2946 43.3005L95.0137 37.6156C94.7893 37.2228 94.3043 37.0669 93.8904 37.2457L90.6096 38.6635C89.2805 37.5133 87.7384 36.6157 86.0411 36.0265L85.637 32.4786C85.5844 32.0297 85.2058 31.6909 84.7535 31.6909H78.1918V31.6909ZM81.4726 43.0882C84.8602 43.0882 87.6096 45.834 87.6096 49.2252C87.6096 52.6128 84.8637 55.3622 81.4726 55.3622C78.085 55.3622 75.3356 52.6128 75.3356 49.2252C75.3356 45.834 78.085 43.0882 81.4726 43.0882V43.0882Z" fill="white"/>
</g>
</svg>
