<svg width="66" height="66" viewBox="0 0 66 66" fill="none" xmlns="http://www.w3.org/2000/svg">
<circle cx="33" cy="33" r="33" fill="#3A6178"/>
<g clip-path="url(#clip0_365_4705)">
<g clip-path="url(#clip1_365_4705)">
<path d="M17 17C14.794 17 13 18.794 13 21V41C13 43.206 14.794 45 17 45H9V49H35.3438L37.2031 47.1406C37.0771 46.4446 37 45.732 37 45C37 43.596 37.2532 42.254 37.6992 41H17V21H49L49.0039 33C50.3679 33 51.704 33.2449 53 33.7109V21C53 18.794 51.206 17 49 17H17ZM49 37C44.582 37 41 40.582 41 45C41 46.1725 41.2655 47.2778 41.7188 48.2812L37.5859 52.4141C36.8039 53.1961 36.8039 54.4622 37.5859 55.2422L38.7578 56.4141C39.5378 57.1961 40.8039 57.1961 41.5859 56.4141L45.7188 52.2812C46.7222 52.7345 47.8275 53 49 53C53.418 53 57 49.418 57 45C57 43.828 56.7352 42.7207 56.2812 41.7188L51 47L47 43L52.2812 37.7188C51.2793 37.2648 50.172 37 49 37Z" fill="white"/>
</g>
</g>
<defs>
<clipPath id="clip0_365_4705">
<rect width="48" height="48" fill="white" transform="translate(9 9)"/>
</clipPath>
<clipPath id="clip1_365_4705">
<rect width="48" height="48" fill="white" transform="translate(9 9)"/>
</clipPath>
</defs>
</svg>
