<svg width="128" height="128" viewBox="0 0 128 128" fill="none" xmlns="http://www.w3.org/2000/svg">
<path d="M28 20C21.4201 20 16 25.4201 16 32V96C16 102.58 21.4201 108 28 108H112V32H44V40H104V100H28C25.7399 100 24 98.2601 24 96C24 93.7399 25.7399 92 28 92H40V84V20H28ZM28 28H32V84H28C26.5926 84 25.2596 84.2958 24 84.75V32C24 29.7399 25.7399 28 28 28ZM76.0234 56V64H82.3672L72.0234 74.3438L60.0234 62.3438L45.1953 77.1719L50.8516 82.8281L60.0234 73.6562L72.0234 85.6562L88.0234 69.6562V76H96.0234V56H76.0234Z" fill="#0A2145"/>
</svg>
