<svg width="66" height="66" viewBox="0 0 66 66" fill="none" xmlns="http://www.w3.org/2000/svg">
<circle cx="33" cy="33" r="33" fill="#3A6178"/>
<path d="M17.6673 15.75C15.5494 15.75 13.834 17.4654 13.834 19.5833V40.6667C13.834 42.7846 15.5494 44.5 17.6673 44.5H31.084V40.6667H19.584V19.5833H52.1673C52.1673 17.4654 50.4519 15.75 48.334 15.75H17.6673ZM38.7507 23.4167C36.6327 23.4167 34.9173 25.1321 34.9173 27.25V46.4167C34.9173 48.5346 36.6327 50.25 38.7507 50.25H48.334C50.4519 50.25 52.1673 48.5346 52.1673 46.4167V27.25C52.1673 25.1321 50.4519 23.4167 48.334 23.4167H38.7507ZM38.7507 27.25H48.334V46.4167H38.7507V27.25Z" fill="white"/>
</svg>
