<svg width="66" height="66" viewBox="0 0 66 66" fill="none" xmlns="http://www.w3.org/2000/svg">
<circle cx="33" cy="33" r="33" fill="#3A6178"/>
<path d="M18.4167 16.25C16.1395 16.25 14.25 18.1395 14.25 20.4167V49.5833C14.25 51.8605 16.1395 53.75 18.4167 53.75H47.5833C49.8605 53.75 51.75 51.8605 51.75 49.5833V20.4167C51.75 18.1395 49.8605 16.25 47.5833 16.25H18.4167ZM18.4167 20.4167H47.5833V24.5833H18.4167V20.4167ZM18.4167 28.75H47.5833V49.5833H18.4167V28.75ZM22.5833 32.9167V37.0833H26.75V32.9167H22.5833ZM30.9167 32.9167V37.0833H43.4167V32.9167H30.9167ZM22.5833 41.25V45.4167H26.75V41.25H22.5833ZM30.9167 41.25V45.4167H43.4167V41.25H30.9167Z" fill="white"/>
</svg>
