<svg width="66" height="66" viewBox="0 0 66 66" fill="none" xmlns="http://www.w3.org/2000/svg">
<circle cx="33" cy="33" r="33" fill="#3A6178"/>
<path d="M44.1289 12C43.8709 12 43.655 12.1932 43.625 12.4492L43.3906 14.4727C42.4226 14.8087 41.5471 15.3206 40.7891 15.9766L38.9141 15.1641C38.6781 15.0621 38.4053 15.1569 38.2773 15.3789L36.4023 18.6211C36.2743 18.8431 36.3331 19.1273 36.5391 19.2812L38.1523 20.4805C38.0563 20.9745 38 21.48 38 22C38 22.52 38.0563 23.0255 38.1523 23.5195L36.5391 24.7188C36.3331 24.8727 36.2723 25.1569 36.4023 25.3789L38.2773 28.6211C38.4053 28.8451 38.6781 28.934 38.9141 28.832L40.7891 28.0234C41.5471 28.6814 42.4226 29.1913 43.3906 29.5273L43.625 31.5508C43.655 31.8068 43.8709 32 44.1289 32H47.8711C48.1291 32 48.345 31.8068 48.375 31.5508L48.6094 29.5273C49.5774 29.1913 50.4529 28.6794 51.2109 28.0234L53.0859 28.8359C53.3219 28.9379 53.5947 28.8431 53.7227 28.6211L55.5977 25.3789C55.7257 25.1549 55.6669 24.8707 55.4609 24.7188L53.8477 23.5195C53.9437 23.0255 54 22.52 54 22C54 21.48 53.9437 20.9745 53.8477 20.4805L55.4609 19.2812C55.6669 19.1273 55.7277 18.8431 55.5977 18.6211L53.7227 15.3789C53.5947 15.1569 53.3219 15.0621 53.0859 15.1641L51.2109 15.9766C50.4529 15.3206 49.5774 14.8087 48.6094 14.4727L48.375 12.4492C48.345 12.1932 48.1291 12 47.8711 12H44.1289ZM46 18C48.208 18 50 19.79 50 22C50 24.208 48.208 26 46 26C43.792 26 42 24.208 42 22C42 19.79 43.792 18 46 18ZM16 20C13.794 20 12 21.794 12 24V44C12 46.206 13.794 48 16 48H8V52H56V48H48C50.206 48 52 46.206 52 44V34.6328C50.756 35.2248 49.4159 35.6378 48.0039 35.8398V44H16V24H32.1602C32.0662 23.346 32 22.68 32 22C32 21.32 32.0662 20.654 32.1602 20H16Z" fill="white"/>
</svg>
