<svg width="66" height="66" viewBox="0 0 66 66" fill="none" xmlns="http://www.w3.org/2000/svg">
<circle cx="33" cy="33" r="33" fill="#3A6178"/>
<g clip-path="url(#clip0_365_4674)">
<path d="M21 13C18.794 13 17 14.794 17 17V49C17 51.206 18.794 53 21 53H33.0781C33.2561 51.714 33.8238 50.5199 34.7578 49.5859L35.3438 49H21V17H35V27H45V33.6992C46.254 33.2532 47.596 32.9961 49 32.9961V25L37 13H21ZM49 37C44.582 37 41 40.582 41 45C41 46.172 41.2648 47.2793 41.7188 48.2812L37.5859 52.4141C36.8039 53.1961 36.8039 54.4622 37.5859 55.2422L38.7578 56.4141C39.5378 57.1961 40.8039 57.1961 41.5859 56.4141L45.7188 52.2812C46.7207 52.7352 47.828 53 49 53C53.418 53 57 49.418 57 45C57 43.828 56.7352 42.7207 56.2812 41.7188L51 47L47 43L52.2812 37.7188C51.2793 37.2648 50.172 37 49 37Z" fill="white"/>
</g>
<defs>
<clipPath id="clip0_365_4674">
<rect width="48" height="48" fill="white" transform="translate(9 9)"/>
</clipPath>
</defs>
</svg>
