<svg width="128" height="128" viewBox="0 0 128 128" fill="none" xmlns="http://www.w3.org/2000/svg">
<path d="M49.125 18L41.75 21L44.875 28.75C38.0781 32.4531 32.4531 38.0781 28.75 44.875L21 41.75L18 49.125L25.625 52.25C24.5 55.9375 23.875 59.8281 23.875 63.875C23.875 67.9219 24.5 71.8125 25.625 75.5L18 78.625L21 86L28.75 82.875C32.4531 89.6875 38.0625 95.2813 44.875 99L41.75 106.75L49.125 109.75L52.25 102.125C55.9375 103.266 59.8125 103.875 63.875 103.875C67.9219 103.875 71.8125 103.25 75.5 102.125L78.625 109.75L86 106.75L82.875 99C89.6719 95.2969 95.2969 89.6719 99 82.875L106.75 86L109.75 78.625L102.125 75.5C103.25 71.8125 103.875 67.9219 103.875 63.875C103.875 59.8281 103.25 55.9375 102.125 52.25L109.75 49.125L106.75 41.75L99 44.875C95.2969 38.0781 89.6719 32.4531 82.875 28.75L86 21L78.625 18L75.5 25.625C71.8125 24.5 67.9219 23.875 63.875 23.875C59.8281 23.875 55.9375 24.5 52.25 25.625L49.125 18ZM63.875 31.875C81.5938 31.875 95.875 46.1563 95.875 63.875C95.875 81.5938 81.5938 95.875 63.875 95.875C46.1563 95.875 31.875 81.5938 31.875 63.875C31.875 46.1563 46.1563 31.875 63.875 31.875ZM63.875 43.875C52.875 43.875 43.875 52.875 43.875 63.875C43.875 74.875 52.875 83.875 63.875 83.875C74.875 83.875 83.875 74.875 83.875 63.875C83.875 52.875 74.875 43.875 63.875 43.875ZM63.875 51.875C70.5469 51.875 75.875 57.2031 75.875 63.875C75.875 70.5469 70.5469 75.875 63.875 75.875C57.2031 75.875 51.875 70.5469 51.875 63.875C51.875 57.2031 57.2031 51.875 63.875 51.875Z" fill="#0A2145"/>
</svg>
