<svg width="66" height="66" viewBox="0 0 66 66" fill="none" xmlns="http://www.w3.org/2000/svg">
<circle cx="33" cy="33" r="33" fill="#3A6178"/>
<path d="M29.5 6.25C17.7828 6.25 8.25 15.7828 8.25 27.5C8.25 38.6095 16.821 47.7386 27.6946 48.6587C28.1323 47.0777 29.0521 45.6613 30.3674 44.4543C30.0784 44.4692 29.7932 44.5 29.5 44.5C20.1266 44.5 12.5 36.8734 12.5 27.5C12.5 18.1266 20.1266 10.5 29.5 10.5C38.34 10.5 45.62 17.2848 46.4211 25.9187C48.1211 26.4882 49.5765 27.5038 50.6836 28.8489C50.7112 28.4005 50.75 27.9548 50.75 27.5C50.75 15.7828 41.2172 6.25 29.5 6.25ZM27.375 14.75V26.6201L19.4976 34.4976L22.5024 37.5024L31.625 28.3799V14.75H27.375ZM43.3125 29.625C41.9035 29.625 40.5523 30.1847 39.556 31.181C38.5597 32.1773 38 33.5285 38 34.9375C38 36.3465 38.5597 37.6977 39.556 38.694C40.5523 39.6903 41.9035 40.25 43.3125 40.25C44.7215 40.25 46.0727 39.6903 47.069 38.694C48.0653 37.6977 48.625 36.3465 48.625 34.9375C48.625 33.5285 48.0653 32.1773 47.069 31.181C46.0727 30.1847 44.7215 29.625 43.3125 29.625ZM43.3125 44.5C36.929 44.5 31.625 47.0734 31.625 50.7837V53H55V50.7837C55 47.0734 49.696 44.5 43.3125 44.5Z" fill="white"/>
</svg>
