<svg width="72" height="72" viewBox="0 0 72 72" fill="none" xmlns="http://www.w3.org/2000/svg">
<path d="M72 62C72 67.524 67.524 72 62 72H10C4.478 72 0 67.524 0 62V10C0 4.476 4.478 0 10 0H62C67.524 0 72 4.476 72 10V62Z" fill="white"/>
<path d="M12 26H22V60H12V26ZM16.97 22H16.914C13.93 22 12 19.776 12 16.998C12 14.16 13.99 12 17.028 12C20.07 12 21.944 14.16 22 16.998C22 19.774 20.07 22 16.97 22ZM60 60H50V41.802C50 37.406 47.55 34.406 43.616 34.406C40.614 34.406 38.99 36.43 38.202 38.386C37.914 39.086 38 41.022 38 42V60H28V26H38V31.232C39.442 29 41.7 26 47.476 26C54.632 26 59.998 30.5 59.998 40.548L60 60Z" fill="#0288D1"/>
</svg>
