<svg width="128" height="128" viewBox="0 0 128 128" fill="none" xmlns="http://www.w3.org/2000/svg">
<path d="M101.25 20L97.375 21.125L51.25 34.125L47.375 35.25L49.625 43L34.25 47.25L30.375 48.375L32.625 56.125L24.875 58.25L23.75 54.375L16 56.5L20.375 71.875L28.125 69.75L27 65.875L34.75 63.625L35.875 67.625L36.875 71.5L40.75 70.375L56.125 66.125L57 69.5C56.6875 70.0625 56.5 70.7813 56.5 71.75C56.5 74.7031 58.1094 77.2344 60.5 78.625V107.75H68.5V78.625C70.8906 77.2344 72.5 74.7031 72.5 71.75C72.5 70.9219 72.3594 70.2656 72.125 69.75L108.25 59.625L112.125 58.5L111 54.625L102.375 23.875L101.25 20ZM95.75 29.875L102.25 53L63.875 63.875L62.75 60L58.375 44.625L57.375 40.75L95.75 29.875ZM51.75 50.625L53.875 58.375L42.5 61.625L40.25 53.875L51.75 50.625ZM56.5 80.125L42.5 99.75H52.25L56.5 93.875V80.125ZM72.5 80.125V93.875L76.75 99.75H86.5L72.5 80.125Z" fill="#0A2145"/>
</svg>
