<svg width="128" height="128" viewBox="0 0 128 128" fill="none" xmlns="http://www.w3.org/2000/svg">
<circle cx="64" cy="64" r="64" fill="#54C1BD" fill-opacity="0.2"/>
<path d="M28.5042 88.4435H29.1731C29.8885 88.4435 30.4693 87.8628 30.4693 87.1473C30.4693 86.4318 29.8885 85.8511 29.1731 85.8511H28.5042C27.79 85.8511 27.208 85.2691 27.208 84.5549V78.0736H28.5042C29.2197 78.0736 29.8004 77.4928 29.8004 76.7774C29.8004 76.0619 29.2197 75.4812 28.5042 75.4812H27.208V71.5924C27.208 70.8782 27.79 70.2962 28.5042 70.2962H53.3663L55.7501 82.2166C55.8733 82.8323 56.4151 83.2588 57.0205 83.2588C57.1048 83.2588 57.1903 83.2511 57.2758 83.2329C57.9784 83.0928 58.4333 82.4097 58.2921 81.7085L56.0106 70.2962H77.7501C78.4669 70.2962 79.0463 69.7155 79.0463 69C79.0463 68.2846 78.4669 67.7038 77.7501 67.7038H73.3661L75.0214 64.3944C75.3417 63.7542 75.0824 62.975 74.4407 62.6548C73.7991 62.3346 73.0239 62.5939 72.7025 63.2356L70.4678 67.7037H55.7255V56.0374C55.7255 55.3219 55.1448 54.7412 54.4293 54.7412C53.7138 54.7412 53.1331 55.3219 53.1331 56.0374V67.7037H28.5042C26.3603 67.7037 24.6155 69.4484 24.6155 71.5924V84.5549C24.6155 86.6987 26.3603 88.4435 28.5042 88.4435Z" fill="#54C1BD"/>
<path d="M85.5272 83.2581C83.3832 83.2581 81.6384 85.0028 81.6384 87.1468C81.6384 89.2908 83.3832 91.0356 85.5272 91.0356C87.6725 91.0356 89.4159 89.2908 89.4159 87.1468C89.4159 85.0028 87.6725 83.2581 85.5272 83.2581ZM85.5272 88.4432C84.8129 88.4432 84.231 87.8612 84.231 87.147C84.231 86.4327 84.8129 85.8508 85.5272 85.8508C86.2426 85.8508 86.8234 86.4327 86.8234 87.147C86.8234 87.8612 86.2426 88.4432 85.5272 88.4432Z" fill="#54C1BD"/>
<path d="M36.2091 64.2735C36.8456 64.4808 37.5404 64.1711 37.8049 63.5527L41.3294 55.3202C42.4117 53.1568 44.1033 52.1483 46.6518 52.1483H64.7993C67.9479 52.1483 70.8567 53.8256 72.8257 56.8162L80.5669 67.1059C80.9065 67.7229 82.5047 70.2959 85.5276 70.2959H89.4164C94.9786 70.2959 97.1848 73.3745 98.0442 75.4808H95.8977C95.1808 75.4808 94.6015 76.0616 94.6015 76.777C94.6015 77.4925 95.1808 78.0732 95.8977 78.0732H98.6847L99.7489 84.6401C99.8384 84.9835 99.8098 85.2531 99.6608 85.4438C99.4624 85.7031 99.0346 85.8509 98.4902 85.8509H94.4977C93.8664 81.4606 90.0891 78.0734 85.5276 78.0734C80.5254 78.0734 76.4539 82.1437 76.4539 87.1471C76.4539 92.1505 80.5254 96.2208 85.5276 96.2208C90.0891 96.2208 93.8664 92.8336 94.4977 88.4433H98.4902C99.8656 88.4433 101.01 87.9403 101.714 87.0278C102.36 86.1918 102.551 85.1094 102.282 84.1047L101.058 76.5231C100.204 72.2597 96.6988 67.7033 89.4165 67.7033H85.5278C83.7947 67.7033 82.8328 65.8471 82.8265 65.8367C82.7915 65.7629 82.7487 65.6929 82.6995 65.628L74.9453 55.3254C72.5693 51.7128 68.7765 49.5558 64.7997 49.5558H46.6518C43.1104 49.5558 40.5387 51.1047 38.9793 54.23L35.9085 61.3957C30.6587 59.1816 27.208 54.042 27.208 48.2594C27.208 40.3976 33.605 34.0006 41.4668 34.0006H68.7919C69.4232 38.391 73.1991 41.7781 77.762 41.7781H82.9468C83.6636 41.7781 84.243 41.1974 84.243 40.4819V39.1857H90.7243C91.4411 39.1857 92.0205 38.605 92.0205 37.8895C92.0205 37.174 91.4411 36.5933 90.7243 36.5933H84.243V28.8158H90.7243C91.4411 28.8158 92.0205 28.2351 92.0205 27.5196C92.0205 26.8041 91.4411 26.2234 90.7243 26.2234H84.243V24.9271C84.243 24.2116 83.6636 23.6309 82.9468 23.6309H77.7618C73.1991 23.6309 69.423 27.018 68.7917 31.4084H41.4667C32.1739 31.4084 24.6155 38.9668 24.6155 48.2596C24.6155 55.564 29.2742 61.9999 36.2091 64.2735ZM85.5276 93.6284C81.9539 93.6284 79.0463 90.7209 79.0463 87.1471C79.0463 83.5734 81.9538 80.6658 85.5276 80.6658C89.1013 80.6658 92.0089 83.5732 92.0089 87.1471C92.0089 90.7209 89.1013 93.6284 85.5276 93.6284ZM77.7618 26.2234H81.6506V39.1859H77.7618C74.1881 39.1859 71.2805 36.2784 71.2805 32.7046C71.2805 29.1307 74.188 26.2234 77.7618 26.2234Z" fill="#3A6178"/>
<path d="M75.1694 98.8132H72.5769C71.8601 98.8132 71.2808 99.3941 71.2808 100.11C71.2808 100.825 71.8601 101.406 72.5769 101.406H75.1694C75.8863 101.406 76.4656 100.825 76.4656 100.11C76.4656 99.3941 75.8863 98.8132 75.1694 98.8132Z" fill="#54C1BD"/>
<path d="M101.094 98.8132H80.3538C79.637 98.8132 79.0576 99.3941 79.0576 100.11C79.0576 100.825 79.637 101.406 80.3538 101.406H101.094C101.811 101.406 102.39 100.825 102.39 100.11C102.39 99.3941 101.811 98.8132 101.094 98.8132Z" fill="#54C1BD"/>
<path d="M67.3917 98.8132H49.2442C48.5287 98.8132 47.948 99.3941 47.948 100.11C47.948 100.825 48.5287 101.406 49.2442 101.406H67.3917C68.1085 101.406 68.6879 100.825 68.6879 100.11C68.6879 99.3941 68.1085 98.8132 67.3917 98.8132Z" fill="#54C1BD"/>
<path d="M41.466 78.0732C36.4625 78.0732 32.3923 82.1435 32.3923 87.1469C32.3923 92.1504 36.4626 96.2206 41.466 96.2206C46.0276 96.2206 49.8048 92.8335 50.4361 88.4431H72.5645C73.2813 88.4431 73.8607 87.8624 73.8607 87.1469C73.8607 86.4315 73.2813 85.8507 72.5645 85.8507H50.4361C49.8048 81.4604 46.0276 78.0732 41.466 78.0732ZM41.466 93.6282C37.8923 93.6282 34.9847 90.7208 34.9847 87.1469C34.9847 83.5732 37.8922 80.6656 41.466 80.6656C45.0397 80.6656 47.9473 83.5731 47.9473 87.1469C47.9473 90.7208 45.0399 93.6282 41.466 93.6282Z" fill="#54C1BD"/>
<path d="M41.4676 83.2581C39.3236 83.2581 37.5789 85.0028 37.5789 87.1468C37.5789 89.2908 39.3236 91.0356 41.4676 91.0356C43.6116 91.0356 45.3564 89.2908 45.3564 87.1468C45.3564 85.0028 43.6116 83.2581 41.4676 83.2581ZM41.4676 88.4432C40.7534 88.4432 40.1714 87.8612 40.1714 87.147C40.1714 86.4327 40.7534 85.8508 41.4676 85.8508C42.1819 85.8508 42.7638 86.4327 42.7638 87.147C42.7638 87.8612 42.1819 88.4432 41.4676 88.4432Z" fill="#54C1BD"/>
<path d="M44.0592 98.8132H25.9117C25.1962 98.8132 24.6155 99.3941 24.6155 100.11C24.6155 100.825 25.1962 101.406 25.9117 101.406H44.0592C44.7747 101.406 45.3554 100.825 45.3554 100.11C45.3554 99.3941 44.7747 98.8132 44.0592 98.8132Z" fill="#54C1BD"/>
<path d="M62.2059 75.4808C62.9214 75.4808 63.5021 74.9001 63.5021 74.1846C63.5021 73.4692 62.9214 72.8884 62.2059 72.8884H60.9097C60.1943 72.8884 59.6135 73.4692 59.6135 74.1846C59.6135 74.9001 60.1943 75.4808 60.9097 75.4808H62.2059Z" fill="#54C1BD"/>
</svg>
