<svg width="66" height="66" viewBox="0 0 66 66" fill="none" xmlns="http://www.w3.org/2000/svg">
<circle cx="33" cy="33" r="33" fill="#3A6178"/>
<path d="M20.75 17.25L17.25 20.75L19.7109 24.4414C20.3602 25.4162 21.454 26 22.623 26H23.5254L28.2627 30.7373L30.7373 28.2627L26 23.5254V22.623C26 21.454 25.4162 20.3602 24.4414 19.7109L20.75 17.25ZM43.5 17.25C39.6342 17.25 36.5 20.3842 36.5 24.25C36.5 25.2759 36.7323 26.2431 37.1289 27.1211L19.5127 44.7373C18.8284 45.4216 18.8284 46.5294 19.5127 47.2119L20.5381 48.2373C21.2206 48.9216 22.3284 48.9216 23.0127 48.2373L33.2256 38.0244L43.2471 48.0459C44.1851 48.9839 45.7031 48.9856 46.6411 48.0459L48.0459 46.6411C48.9839 45.7049 48.9839 44.1851 48.0459 43.2471L38.0244 33.2256L40.6289 30.6211C41.5069 31.0177 42.4741 31.25 43.5 31.25C47.3658 31.25 50.5 28.1158 50.5 24.25C50.5 23.2245 50.2683 22.2557 49.8711 21.3789L45.25 26L41.75 22.5L46.3711 17.8789C45.4943 17.4817 44.5255 17.25 43.5 17.25Z" fill="white"/>
</svg>
