<svg width="66" height="66" viewBox="0 0 66 66" fill="none" xmlns="http://www.w3.org/2000/svg">
<circle cx="33" cy="33" r="33" fill="#3A6178"/>
<path d="M33 4.17188L17.1719 20H22.8281L33 9.82812L43.1719 20H48.8281L33 4.17188ZM19.4453 24L15 37.6836V40H19V38.3164L19.1016 38H22.8984L23 38.3164V40H27V37.6836L22.5547 24H19.4453ZM29 24V40H34C35.9617 40 37.3479 38.6654 38.1641 37H39V35V31V29C39 26.2619 36.7381 24 34 24H29ZM41 24V40H45V34H46C46.5739 34 47 34.4261 47 35V37V40H51V37V35C51 33.7424 50.5078 32.5985 49.7266 31.7148C49.8775 31.4799 50.0397 31.2538 50.1641 31H51V29C51 26.2619 48.7381 24 46 24H41ZM11 26.1719L5.17188 32L11 37.8281V26.1719ZM55 26.1719V37.8281L60.8281 32L55 26.1719ZM33 28H34C34.5739 28 35 28.4261 35 29V31V35C35 35.5739 34.5739 36 34 36H33V28ZM45 28H46C46.5739 28 47 28.4261 47 29C47 29.5739 46.5739 30 46 30H45V28ZM21 32.1602L21.5977 34H20.4023L21 32.1602ZM17.1719 44L33 59.8281L48.8281 44H43.1719L33 54.1719L22.8281 44H17.1719Z" fill="white"/>
</svg>
