<svg width="72" height="72" viewBox="0 0 72 72" fill="none" xmlns="http://www.w3.org/2000/svg">
<path d="M72 62C72 67.524 67.524 72 62 72H10C4.478 72 0 67.524 0 62V10C0 4.476 4.478 0 10 0H62C67.524 0 72 4.476 72 10V62Z" fill="white"/>
<path d="M36 10C21.6415 10 10 21.6415 10 36C10 50.3585 21.6415 62 36 62C50.3585 62 62 50.3585 62 36C62 21.6415 50.3585 10 36 10ZM45.0588 27.3333H41.3127C38.9813 27.3333 38.1667 28.564 38.1667 31.0557V33.8333H45.0003L44.073 40.3333H38.1667V57.5583C37.4538 57.6277 36.7323 57.6667 36 57.6667C34.5158 57.6667 33.0663 57.515 31.6667 57.2312V40.3333H25.1667V33.8333H31.6667V30.3428C31.6667 23.7345 34.8863 20.8333 40.3788 20.8333C43.0092 20.8333 44.4002 21.0283 45.0588 21.1172V27.3333Z" fill="#1877F2"/>
</svg>
