<svg width="66" height="66" viewBox="0 0 66 66" fill="none" xmlns="http://www.w3.org/2000/svg">
<circle cx="33" cy="33" r="33" fill="#3A6178"/>
<path d="M18.5 16C15.4802 16 13 18.4802 13 21.5V44.5C13 47.5198 15.4802 50 18.5 50H47.5C50.5198 50 53 47.5198 53 44.5V21.5C53 18.4802 50.5198 16 47.5 16H18.5ZM18.5 19H47.5C48.8982 19 50 20.1018 50 21.5V44.5C50 45.8982 48.8982 47 47.5 47H18.5C17.1018 47 16 45.8982 16 44.5V21.5C16 20.1018 17.1018 19 18.5 19ZM25 27C24.487 27 24.0269 27.313 23.8379 27.791L20.0879 37.291C19.8349 37.933 20.149 38.6581 20.791 38.9121C21.435 39.1661 22.1581 38.851 22.4121 38.209L22.793 37.25H27.2109L27.5898 38.209C27.7818 38.701 28.253 39 28.752 39C28.904 39 29.059 38.9721 29.209 38.9121C29.851 38.6591 30.1651 37.933 29.9121 37.291L26.1621 27.791C25.9731 27.313 25.513 27 25 27ZM33.25 27C32.56 27 32 27.56 32 28.25V37.75C32 38.44 32.56 39 33.25 39C33.94 39 34.5 38.44 34.5 37.75V36H36.5C38.981 36 41 33.981 41 31.5C41 29.019 38.981 27 36.5 27H33.25ZM44.25 27C43.56 27 43 27.56 43 28.25V37.75C43 38.44 43.56 39 44.25 39C44.94 39 45.5 38.44 45.5 37.75V28.25C45.5 27.56 44.94 27 44.25 27ZM34.5 29.5H36.5C37.603 29.5 38.5 30.397 38.5 31.5C38.5 32.603 37.603 33.5 36.5 33.5H34.5V29.5ZM25 31.6543L26.2227 34.75H23.7773L25 31.6543Z" fill="white"/>
</svg>
