<svg width="66" height="66" viewBox="0 0 66 66" fill="none" xmlns="http://www.w3.org/2000/svg">
<circle cx="33" cy="33" r="33" fill="#3A6178"/>
<path d="M33 15C27.6967 15 25.5 18.4017 25.5 22.5C25.5 23.88 26.1608 25.2669 26.1608 25.2669C25.8958 25.4203 25.4551 25.9076 25.5651 26.7676C25.7701 28.3709 26.4662 28.7753 26.9095 28.8086C27.0778 30.3053 28.6883 32.2217 29.25 32.5V34.7363C28 38.4863 18 37.9167 18 46.6667H48C48 37.9167 38 38.4863 36.75 34.7363V32.5C37.3133 32.2217 38.9222 30.3053 39.0905 28.8086C39.5338 28.7753 40.2299 28.3709 40.4349 26.7676C40.5449 25.9059 40.1042 25.4203 39.8392 25.2669C39.8392 25.2669 40.5 24.015 40.5 22.5C40.5 19.465 39.3083 16.875 36.75 16.875C36.75 16.875 35.8617 15 33 15ZM45.5 18.3301C44.6467 18.3301 43.9206 18.4844 43.2539 18.7044C43.6189 19.8361 43.8333 21.0983 43.8333 22.5C43.8333 23.3867 43.6942 24.1996 43.5176 24.8796C43.7592 25.5946 43.8423 26.3808 43.7389 27.1875C43.5039 29.0225 42.7915 30.2697 41.8965 31.0547C41.6365 31.6847 41.2805 32.2816 40.8971 32.8516C41.3705 33.8232 42.0633 34.6883 42.375 34.8633V34.8828C45.77 36.4745 51.3333 39.15 51.3333 46.6667H58C58 38.4033 49.6667 39.5898 48.625 36.0482V34.86C49.0933 34.5967 50.4349 32.787 50.5749 31.3737C50.9432 31.342 51.5247 30.9616 51.6947 29.4466C51.7863 28.6333 51.4199 28.1756 51.1999 28.0306C51.1999 28.0306 51.75 26.845 51.75 25.4167C51.75 22.55 50.7567 20.1042 48.625 20.1042C48.625 20.1042 47.885 18.3301 45.5 18.3301ZM20.5 18.3333C18.115 18.3333 17.375 20.1042 17.375 20.1042C15.2433 20.1042 14.25 22.5533 14.25 25.4199C14.25 26.8499 14.8001 28.0306 14.8001 28.0306C14.5785 28.1739 14.2137 28.6333 14.3053 29.4466C14.4753 30.9616 15.0568 31.3453 15.4251 31.377C15.5651 32.7903 16.9067 34.5999 17.375 34.8633V36.0482C16.3333 39.5882 8 38.4033 8 46.6667H14.6667C14.6667 39.15 20.23 36.4761 23.625 34.8828V34.86C23.9367 34.685 24.6295 33.8249 25.1029 32.8516C24.7195 32.2816 24.3635 31.6814 24.1035 31.0514C23.2085 30.2681 22.4944 29.0208 22.2611 27.1875C22.1561 26.3708 22.2423 25.5719 22.4889 24.8503C22.3089 24.1653 22.1667 23.3517 22.1667 22.5C22.1667 21.1217 22.3618 19.8546 22.7168 18.6979C22.0585 18.4829 21.3417 18.3333 20.5 18.3333Z" fill="white"/>
</svg>
