<svg width="72" height="72" viewBox="0 0 72 72" fill="none" xmlns="http://www.w3.org/2000/svg">
<path d="M72 62C72 67.524 67.524 72 62 72H10C4.478 72 0 67.524 0 62V10C0 4.476 4.478 0 10 0H62C67.524 0 72 4.476 72 10V62Z" fill="white"/>
<path d="M60 21.1172C58.2344 21.8984 56.3359 22.4297 54.3438 22.6641C56.375 21.4453 57.9375 19.5156 58.6719 17.2187C56.7734 18.3437 54.6641 19.1641 52.4219 19.6094C50.625 17.6953 48.0625 16.4922 45.2344 16.4922C39.7969 16.4922 35.3828 20.9062 35.3828 26.3437C35.3828 27.1172 35.4688 27.8672 35.6406 28.5859C27.4531 28.1797 20.1953 24.2578 15.3438 18.2969C14.4922 19.75 14.0078 21.4453 14.0078 23.25C14.0078 26.6641 15.7422 29.6797 18.3906 31.4453C16.7734 31.3906 15.2578 30.9531 13.9297 30.2109C13.9297 30.2578 13.9297 30.2969 13.9297 30.3359C13.9297 35.1094 17.3203 39.0937 21.8281 39.9922C21 40.2187 20.1328 40.3438 19.2344 40.3438C18.6016 40.3438 17.9766 40.2813 17.3828 40.1641C18.6328 44.0781 22.2734 46.9219 26.5781 47.0078C23.2109 49.6484 18.9609 51.2188 14.3516 51.2188C13.5547 51.2188 12.7734 51.1719 12 51.0781C16.3594 53.875 21.5312 55.5078 27.0938 55.5078C45.2109 55.5078 55.1172 40.5 55.1172 27.4844C55.1172 27.0625 55.1016 26.6328 55.0859 26.2109C57.0078 24.8203 58.6797 23.0859 60 21.1172Z" fill="#1D9BF0"/>
</svg>
