<svg width="128" height="128" viewBox="0 0 128 128" fill="none" xmlns="http://www.w3.org/2000/svg">
<circle cx="64" cy="64" r="64" fill="#54C1BD" fill-opacity="0.2"/>
<path d="M87.3182 30.1411H84.575V31.4147H87.3182V30.1411Z" fill="black"/>
<path d="M87.3182 32.9822H84.575V34.2558H87.3182V32.9822Z" fill="black"/>
<path d="M84.575 35.8235H87.3181V36.0194C87.3181 36.8031 85.9465 38.2725 85.9465 38.2725C85.9465 38.2725 84.575 36.7051 84.575 36.0194V35.8235V35.8235Z" fill="black"/>
<path d="M88.7863 29.3572C88.7863 29.7491 88.3944 30.141 88.0025 30.141H83.9857C83.5938 30.141 83.2019 29.7491 83.2019 29.3572C83.2019 28.9654 83.5938 28.5735 83.9857 28.5735H88.0025C88.3944 28.4755 88.7863 28.8674 88.7863 29.3572Z" fill="#324A5E"/>
<path d="M88.7863 32.1984C88.7863 32.5904 88.3944 32.9823 88.0025 32.9823H83.9857C83.5938 32.9823 83.2019 32.5904 83.2019 32.1984C83.2019 31.8065 83.5938 31.4146 83.9857 31.4146H88.0025C88.3944 31.4146 88.7863 31.7085 88.7863 32.1984Z" fill="#324A5E"/>
<path d="M88.7863 35.04C88.7863 35.4319 88.3944 35.8239 88.0025 35.8239H83.9857C83.5938 35.8239 83.2019 35.4319 83.2019 35.04C83.2019 34.6481 83.5938 34.2561 83.9857 34.2561H88.0025C88.3944 34.2561 88.7863 34.6481 88.7863 35.04Z" fill="#324A5E"/>
<path d="M97.2124 52.6746H94.4692V53.9482H97.2124V52.6746Z" fill="black"/>
<path d="M97.2124 55.5156H94.4692V56.7897H97.2124V55.5156Z" fill="black"/>
<path d="M94.4692 58.3569H97.2124V58.5529C97.2124 59.3367 95.8408 60.8062 95.8408 60.8062C95.8408 60.8062 94.4692 59.2387 94.4692 58.5529V58.3569V58.3569Z" fill="black"/>
<path d="M98.5844 51.8907C98.5844 52.2826 98.1925 52.6745 97.8006 52.6745H93.7838C93.3919 52.6745 93 52.2826 93 51.8907C93 51.4988 93.3919 51.1069 93.7838 51.1069H97.8006C98.2905 51.1069 98.5844 51.4009 98.5844 51.8907Z" fill="#324A5E"/>
<path d="M98.5844 54.7318C98.5844 55.1237 98.1925 55.5155 97.8006 55.5155H93.7838C93.3919 55.5155 93 55.1237 93 54.7318C93 54.3399 93.3919 53.948 93.7838 53.948H97.8006C98.2905 53.948 98.5844 54.3399 98.5844 54.7318Z" fill="#324A5E"/>
<path d="M98.5844 57.5731C98.5844 57.965 98.1925 58.3569 97.8006 58.3569H93.7838C93.3919 58.3569 93 57.965 93 57.5731C93 57.1812 93.3919 56.7893 93.7838 56.7893H97.8006C98.2905 56.7893 98.5844 57.1812 98.5844 57.5731Z" fill="#324A5E"/>
<path d="M82.222 52.6746H79.4788V53.9482H82.222V52.6746Z" fill="black"/>
<path d="M82.2218 55.5156H79.4785V56.7897H82.2218V55.5156Z" fill="black"/>
<path d="M79.4785 58.3569H82.2217V58.5529C82.2217 59.3367 80.8501 60.8062 80.8501 60.8062C80.8501 60.8062 79.4785 59.2387 79.4785 58.5529V58.3569V58.3569Z" fill="black"/>
<path d="M83.5939 51.8907C83.5939 52.2826 83.202 52.6745 82.8101 52.6745H78.7933C78.4014 52.6745 78.0095 52.2826 78.0095 51.8907C78.0095 51.4988 78.4014 51.1069 78.7933 51.1069H82.8101C83.3 51.1069 83.5939 51.4009 83.5939 51.8907Z" fill="#324A5E"/>
<path d="M83.5939 54.7318C83.5939 55.1237 83.202 55.5155 82.8101 55.5155H78.7933C78.4014 55.5155 78.0095 55.1237 78.0095 54.7318C78.0095 54.3399 78.4014 53.948 78.7933 53.948H82.8101C83.3 53.948 83.5939 54.3399 83.5939 54.7318Z" fill="#324A5E"/>
<path d="M83.5939 57.5731C83.5939 57.965 83.202 58.3569 82.8101 58.3569H78.7933C78.4014 58.3569 78.0095 57.965 78.0095 57.5731C78.0095 57.1812 78.4014 56.7893 78.7933 56.7893H82.8101C83.3 56.7893 83.5939 57.1812 83.5939 57.5731Z" fill="#324A5E"/>
<path d="M48.0298 52.6746H45.2866V53.9482H48.0298V52.6746Z" fill="black"/>
<path d="M48.0298 55.5156H45.2866V56.7897H48.0298V55.5156Z" fill="black"/>
<path d="M45.2866 58.3569H48.0298V58.5529C48.0298 59.3367 46.6582 60.8062 46.6582 60.8062C46.6582 60.8062 45.2866 59.2387 45.2866 58.5529V58.3569Z" fill="black"/>
<path d="M49.4018 51.8907C49.4018 52.2826 49.0099 52.6745 48.618 52.6745H44.6012C44.2093 52.6745 43.8174 52.2826 43.8174 51.8907C43.8174 51.4988 44.2093 51.1069 44.6012 51.1069H48.618C49.1079 51.1069 49.4018 51.4009 49.4018 51.8907Z" fill="#324A5E"/>
<path d="M49.4018 54.7318C49.4018 55.1237 49.0099 55.5155 48.618 55.5155H44.6012C44.2093 55.5155 43.8174 55.1237 43.8174 54.7318C43.8174 54.3399 44.2093 53.948 44.6012 53.948H48.618C49.1079 53.948 49.4018 54.3399 49.4018 54.7318Z" fill="#324A5E"/>
<path d="M49.4018 57.5731C49.4018 57.965 49.0099 58.3569 48.618 58.3569H44.6012C44.2093 58.3569 43.8174 57.965 43.8174 57.5731C43.8174 57.1812 44.2093 56.7893 44.6012 56.7893H48.618C49.1079 56.7893 49.4018 57.1812 49.4018 57.5731Z" fill="#324A5E"/>
<path d="M33.0411 52.6746H30.2979V53.9482H33.0411V52.6746Z" fill="black"/>
<path d="M33.0409 55.5156H30.2976V56.7897H33.0409V55.5156Z" fill="black"/>
<path d="M30.2976 58.3569H33.0408V58.5529C33.0408 59.3367 31.6692 60.8062 31.6692 60.8062C31.6692 60.8062 30.2976 59.2387 30.2976 58.5529C30.2976 58.5529 30.2976 58.3569 30.2976 58.3569Z" fill="black"/>
<path d="M34.4134 51.8907C34.4134 52.2826 34.0215 52.6745 33.6296 52.6745H29.7108C29.3189 52.6745 28.927 52.2826 28.927 51.8907C28.927 51.4988 29.3189 51.1069 29.7108 51.1069H33.6296C34.1195 51.1069 34.4134 51.4009 34.4134 51.8907Z" fill="#324A5E"/>
<path d="M34.4137 54.7318C34.4137 55.1237 34.0218 55.5155 33.6299 55.5155H29.711C29.3191 55.5155 28.9272 55.1237 28.9272 54.7318C28.9272 54.3399 29.3191 53.948 29.711 53.948H33.6299C34.1197 53.948 34.4137 54.3399 34.4137 54.7318Z" fill="#324A5E"/>
<path d="M34.4137 57.5728C34.4137 57.9647 34.0218 58.3566 33.6299 58.3566H29.711C29.3191 58.3566 28.9272 57.9647 28.9272 57.5728C28.9272 57.1809 29.3191 56.7891 29.711 56.7891H33.6299C34.1197 56.7891 34.4137 57.1809 34.4137 57.5728Z" fill="#324A5E"/>
<path d="M45.6797 30.1411H42.9365V31.4147H45.6797V30.1411Z" fill="black"/>
<path d="M45.6797 32.9822H42.9365V34.2558H45.6797V32.9822Z" fill="black"/>
<path d="M42.9365 35.8235H45.6797V36.0194C45.6797 36.8031 44.3081 38.2725 44.3081 38.2725C44.3081 38.2725 42.9365 36.7051 42.9365 36.0194V35.8235Z" fill="black"/>
<path d="M47.0517 29.3572C47.0517 29.7491 46.6598 30.141 46.2679 30.141H42.2511C41.8592 30.141 41.4673 29.7491 41.4673 29.3572C41.4673 28.9654 41.8592 28.5735 42.2511 28.5735H46.2679C46.7578 28.4755 47.0517 28.8674 47.0517 29.3572Z" fill="#324A5E"/>
<path d="M47.0517 32.1984C47.0517 32.5904 46.6598 32.9823 46.2679 32.9823H42.2511C41.8592 32.9823 41.4673 32.5904 41.4673 32.1984C41.4673 31.8065 41.8592 31.4146 42.2511 31.4146H46.2679C46.7577 31.4146 47.0517 31.7085 47.0517 32.1984Z" fill="#324A5E"/>
<path d="M47.0517 35.04C47.0517 35.4319 46.6598 35.8239 46.2679 35.8239H42.2511C41.8592 35.8239 41.4673 35.4319 41.4673 35.04C41.4673 34.6481 41.8592 34.2561 42.2511 34.2561H46.2679C46.7577 34.2561 47.0517 34.6481 47.0517 35.04Z" fill="#324A5E"/>
<path d="M70.6625 120.177C68.5072 120.373 66.2538 120.569 64.0005 120.569C61.7471 120.569 59.4938 120.471 57.3384 120.177L59.6897 16.9149C59.7877 14.5635 61.6491 12.8 64.0005 12.8C65.1761 12.8 66.2538 13.2899 66.9396 13.9757C67.7234 14.7595 68.2132 15.7392 68.2132 16.9149L70.6625 120.177Z" fill="#54C1BD"/>
<path d="M92.4119 28.4753H35.5884C35.5884 26.4181 37.2539 24.7527 39.3113 24.7527H88.787C90.7464 24.8506 92.4119 26.516 92.4119 28.4753Z" fill="#3A6178"/>
<path d="M103.385 51.107H24.6155C24.6155 48.2658 26.8688 46.0125 29.71 46.0125H98.0942C101.033 45.9145 103.385 48.2658 103.385 51.107Z" fill="#3A6178"/>
</svg>
