<svg width="66" height="66" viewBox="0 0 66 66" fill="none" xmlns="http://www.w3.org/2000/svg">
<circle cx="33" cy="33" r="33" fill="#3A6178"/>
<path d="M9 19.5V46.5H57V19.5H9ZM12 22.5H54V43.5H12V22.5ZM27 27V35.25C27 35.5723 26.5723 36 26.25 36C25.9277 36 25.5 35.5723 25.5 35.25V34.5H22.5V35.25C22.5 37.3242 24.1758 39 26.25 39C28.3242 39 30 37.3242 30 35.25V27H27ZM36.75 27C34.6758 27 33 28.6758 33 30.75C33 32.8242 34.6758 34.5 36.75 34.5C37.0723 34.5 37.5 34.9277 37.5 35.25C37.5 35.7012 37.3242 36 36.75 36C36.1992 36 36.1113 35.8828 36.0938 35.8594C36.0762 35.8359 36 35.7422 36 35.3906H33C33 36.2402 33.2461 37.1953 33.9375 37.9219C34.6289 38.6484 35.6543 39 36.75 39C38.877 39 40.5 37.2012 40.5 35.25C40.5 33.1758 38.8242 31.5 36.75 31.5C36.4277 31.5 36 31.0723 36 30.75C36 30.4277 36.4277 30 36.75 30C37.1484 30 37.2715 30.0938 37.3594 30.1875C37.4473 30.2812 37.5 30.4395 37.5 30.6094H40.5C40.5 29.7246 40.1777 28.8223 39.5156 28.125C38.8535 27.4277 37.8516 27 36.75 27Z" fill="white"/>
</svg>
