<svg width="72" height="72" viewBox="0 0 72 72" fill="none" xmlns="http://www.w3.org/2000/svg">
<path d="M72 62C72 67.524 67.524 72 62 72H10C4.478 72 0 67.524 0 62V10C0 4.476 4.478 0 10 0H62C67.524 0 72 4.476 72 10V62Z" fill="white"/>
<path fill-rule="evenodd" clip-rule="evenodd" d="M16.284 11.0767C9.753 15.2597 9 17.8357 9 35.9837C9 50.6357 9.203 52.5767 11.05 55.5657C15.148 62.1957 17.79 62.9837 35.918 62.9837C54.181 62.9837 56.281 62.4067 60.471 56.2407C62.922 52.6337 63 52.0147 63 36.1197C63 17.7507 62.229 15.1427 55.582 11.0337C52.587 9.18274 50.67 8.98574 35.882 9.00074C21.066 9.01574 19.193 9.21474 16.284 11.0767ZM52.01 16.6487C56.298 19.1817 57 21.9217 57 36.1267C57 56.0027 56.006 56.9837 35.857 56.9837C15.981 56.9837 15 55.9897 15 35.8407C15 21.8937 15.995 18.2757 20.42 16.1287C21.564 15.5727 28.506 15.0887 35.846 15.0517C46.59 14.9967 49.741 15.3087 52.01 16.6487ZM46.832 20.4537C45.54 23.2877 47.047 25.9837 49.922 25.9837C53.872 25.9837 55.457 20.8337 52.066 19.0187C49.138 17.4527 48.065 17.7467 46.832 20.4537ZM28.299 23.9437C19.622 29.2337 19.984 43.8217 28.906 48.4347C38.654 53.4767 49.987 46.8937 49.996 36.1837C50.004 27.6487 44.424 21.9907 36 21.9907C33.297 21.9907 30.222 22.7707 28.299 23.9437ZM41.545 30.4387C43.093 31.9857 44 34.0357 44 35.9837C44 37.9317 43.093 39.9817 41.545 41.5287C36.585 46.4897 28 42.9747 28 35.9837C28 34.0357 28.907 31.9857 30.455 30.4387C32.002 28.8907 34.052 27.9837 36 27.9837C37.948 27.9837 39.998 28.8907 41.545 30.4387Z" fill="url(#paint0_linear_365_5205)"/>
<defs>
<linearGradient id="paint0_linear_365_5205" x1="36" y1="9" x2="36" y2="62.9837" gradientUnits="userSpaceOnUse">
<stop stop-color="#7723BD"/>
<stop offset="0.477083" stop-color="#C32769"/>
<stop offset="1" stop-color="#DB8C40"/>
</linearGradient>
</defs>
</svg>
