<svg width="66" height="66" viewBox="0 0 66 66" fill="none" xmlns="http://www.w3.org/2000/svg">
<circle cx="33" cy="33" r="33" fill="#3A6178"/>
<path d="M31.3243 13.0835C30.8261 13.0835 30.3971 13.4448 30.3154 13.9368L29.7372 17.418C28.7434 17.5889 27.7827 17.853 26.8582 18.1956L24.6091 15.4681C24.2927 15.0822 23.742 14.9817 23.3092 15.2328L21.2755 16.4092C20.8426 16.6583 20.6533 17.1838 20.8289 17.6493L22.065 20.9511C21.2985 21.5899 20.5904 22.298 19.9516 23.0645L16.6498 21.8284C16.1843 21.6528 15.6588 21.8421 15.4097 22.275L14.2333 24.3087C13.9822 24.7415 14.0827 25.2922 14.4686 25.6086L17.1961 27.8577C16.8535 28.7822 16.5894 29.743 16.4185 30.7367L12.9373 31.3149C12.4453 31.3987 12.084 31.8236 12.084 32.3238V34.6765C12.084 35.1747 12.4453 35.6037 12.9373 35.6854L16.4185 36.2636C16.5894 37.2574 16.8535 38.2181 17.1961 39.1427L14.4686 41.3917C14.0827 41.7081 13.9842 42.2588 14.2333 42.6916L15.4097 44.7253C15.6588 45.1582 16.1843 45.3475 16.6498 45.172L19.9516 43.9358C20.5904 44.7023 21.2985 45.4104 22.065 46.0492L20.8289 49.351C20.6533 49.8185 20.8447 50.3421 21.2755 50.5911L23.3092 51.7675C23.742 52.0166 24.2927 51.9161 24.6091 51.5322L26.8542 48.8047C27.7798 49.148 28.7422 49.4112 29.7372 49.5823L30.3154 53.0635C30.3991 53.5555 30.8241 53.9168 31.3243 53.9168H33.677C34.1752 53.9168 34.6042 53.5555 34.6859 53.0635L35.2641 49.5823C36.2579 49.4114 37.2186 49.1473 38.1431 48.8047L40.3922 51.5322C40.7086 51.9181 41.2593 52.0166 41.6921 51.7675L43.7258 50.5911C44.1587 50.3421 44.348 49.8165 44.1724 49.351L42.9363 46.0492C43.7028 45.4104 44.4109 44.7023 45.0497 43.9358L48.3515 45.172C48.819 45.3475 49.3425 45.1561 49.5916 44.7253L50.768 42.6916C51.0171 42.2588 50.9165 41.7081 50.5327 41.3917L47.8052 39.1466C48.1485 38.221 48.4117 37.2586 48.5828 36.2636L52.064 35.6854C52.556 35.6017 52.9173 35.1767 52.9173 34.6765V32.3238C52.9173 31.8256 52.556 31.3966 52.064 31.3149L48.5828 30.7367C48.4119 29.743 48.1478 28.7822 47.8052 27.8577L50.5327 25.6086C50.9186 25.2922 51.0171 24.7415 50.768 24.3087L49.5916 22.275C49.3425 21.8421 48.817 21.6528 48.3515 21.8284L45.0497 23.0645C44.4109 22.298 43.7028 21.5899 42.9363 20.9511L44.1724 17.6493C44.348 17.1818 44.1566 16.6583 43.7258 16.4092L41.6921 15.2328C41.2593 14.9837 40.7086 15.0843 40.3922 15.4681L38.1471 18.1956C37.2215 17.8523 36.2591 17.5891 35.2641 17.418L34.6859 13.9368C34.6022 13.4448 34.1772 13.0835 33.677 13.0835H31.3243ZM30.459 21.4336V27.758C28.0961 28.6101 26.3756 30.86 26.3756 33.5002C26.3756 33.8818 26.4191 34.2535 26.4873 34.6167L21.0243 37.7709C20.532 36.4408 20.2507 35.0062 20.2507 33.5002C20.2507 27.4081 24.6512 22.4013 30.459 21.4336ZM34.5423 21.4336C40.3501 22.4013 44.7506 27.4081 44.7506 33.5002C44.7506 35.0067 44.4656 36.4404 43.9731 37.7709L38.514 34.6167C38.5822 34.2535 38.6256 33.8818 38.6256 33.5002C38.6256 30.86 36.9052 28.6101 34.5423 27.758V21.4336ZM32.5006 31.4585C33.6524 31.4585 34.5423 32.3484 34.5423 33.5002C34.5423 34.6519 33.6524 35.5418 32.5006 35.5418C31.3489 35.5418 30.459 34.6519 30.459 33.5002C30.459 32.3484 31.3489 31.4585 32.5006 31.4585ZM28.5569 38.1338C29.6283 39.0488 30.996 39.6252 32.5006 39.6252C34.0053 39.6252 35.373 39.0488 36.4444 38.1338L41.9513 41.3119C39.7085 44.027 36.3158 45.7502 32.5006 45.7502C28.6855 45.7502 25.2928 44.027 23.05 41.3119L28.5569 38.1338Z" fill="white"/>
</svg>
