<svg width="66" height="66" viewBox="0 0 66 66" fill="none" xmlns="http://www.w3.org/2000/svg">
<circle cx="33" cy="33" r="33" fill="#3A6178"/>
<path d="M20.166 13.6667C17.1337 13.6667 14.666 16.1344 14.666 19.1667V24.6667H18.3327V46.6667H27.4993V43.0001H21.9993V24.6667H42.166V19.1667C42.166 18.1566 42.9873 17.3334 43.9993 17.3334C45.0352 17.3334 45.8327 18.1309 45.8327 19.1667V46.6667H49.4993V19.1667C49.4993 16.151 47.0151 13.6667 43.9993 13.6667H20.166ZM20.166 17.3334H38.8145C38.611 17.9072 38.4993 18.5251 38.4993 19.1667V21.0001H18.3327V19.1667C18.3327 18.1566 19.1558 17.3334 20.166 17.3334ZM25.666 28.3334V32.0001H42.166V28.3334H25.666ZM25.666 35.6667V39.3334H29.3327V35.6667H25.666ZM36.666 35.6667C33.6502 35.6667 31.166 38.1509 31.166 41.1667C31.166 42.7735 31.8844 44.2141 32.9993 45.2237V51.8087L36.666 49.517L40.3327 51.8087V45.2237C41.4476 44.2141 42.166 42.7735 42.166 41.1667C42.166 38.1509 39.6819 35.6667 36.666 35.6667ZM36.666 39.3334C37.7003 39.3334 38.4993 40.1325 38.4993 41.1667C38.4993 42.201 37.7003 43.0001 36.666 43.0001C35.6318 43.0001 34.8327 42.201 34.8327 41.1667C34.8327 40.1325 35.6318 39.3334 36.666 39.3334Z" fill="white"/>
</svg>
