<svg width="66" height="66" viewBox="0 0 66 66" fill="none" xmlns="http://www.w3.org/2000/svg">
<circle cx="33" cy="33" r="33" fill="#3A6178"/>
<path d="M19.7507 13.9167C17.5965 13.9167 15.834 15.6792 15.834 17.8334V49.1667C15.834 51.3209 17.5965 53.0834 19.7507 53.0834H30.5597C29.6393 51.9084 28.9342 50.5963 28.4446 49.1667H19.7507V17.8334H43.2507V29.6408L47.1673 30.444V17.8334C47.1673 15.6792 45.4048 13.9167 43.2507 13.9167H19.7507ZM23.6673 23.7084V27.6251H39.334V23.7084H23.6673ZM23.6673 31.5417V35.4584H30.5597C31.7347 33.8526 33.2422 32.5209 34.9851 31.5417H23.6673ZM42.2715 33.5001C39.7276 33.5001 37.3632 34.3901 35.5168 35.8983C33.0577 37.8633 31.5007 40.8993 31.5007 44.2709C31.5007 44.6742 31.5246 45.0788 31.5733 45.4757C32.1748 50.8494 36.7463 55.0417 42.2715 55.0417C44.5324 55.0417 46.632 54.3364 48.3683 53.137L52.1473 56.9159L54.9165 54.1467L51.1375 50.3678C52.3369 48.6314 53.0423 46.5319 53.0423 44.2709C53.0423 38.3408 48.2016 33.5001 42.2715 33.5001ZM43.2507 37.5124C46.5945 37.9827 49.1257 40.7845 49.1257 44.2709C49.1257 48.0933 46.0939 51.1251 42.2715 51.1251C38.7908 51.1251 35.988 48.5755 35.5091 45.2501H43.2507V37.5124ZM23.6673 39.3751V43.2917H27.6414C27.7001 41.9209 27.9746 40.6088 28.4446 39.3751H23.6673Z" fill="white"/>
</svg>
