<svg width="128" height="128" viewBox="0 0 128 128" fill="none" xmlns="http://www.w3.org/2000/svg">
<circle cx="64" cy="64" r="64" fill="#54C1BD" fill-opacity="0.2"/>
<path d="M81.4557 57.1172H44.9752V107.496H81.4557V57.1172Z" fill="#D7E6D8"/>
<path d="M86.233 23.4592H40.198V57.1169H86.233V23.4592Z" fill="#54C1BD"/>
<path d="M98.1028 49.2994C95.0256 49.2994 92.5308 46.8048 92.5308 43.7276V40.4465H103.675V43.7276C103.675 46.8046 101.18 49.2994 98.1028 49.2994Z" fill="#54C1BD"/>
<path d="M78.9939 30.842H47.4385V49.7338H78.9939V30.842Z" fill="#D7E6D8"/>
<path d="M103.676 38.6491H103.047V35.2338C103.047 34.241 102.242 33.4363 101.25 33.4363C100.257 33.4363 99.4521 34.241 99.4521 35.2338V38.6491H96.7558V35.2338C96.7558 34.241 95.9509 33.4363 94.9583 33.4363C93.9657 33.4363 93.1608 34.241 93.1608 35.2338V38.6491H92.5322C91.5396 38.6491 90.7346 39.4539 90.7346 40.4467V43.7277C90.7346 47.7913 94.0407 51.0973 98.104 51.0973C102.168 51.0973 105.474 47.7913 105.474 43.7277V40.4467C105.474 39.4539 104.669 38.6491 103.676 38.6491ZM101.878 43.7277C101.878 45.8089 100.185 47.5022 98.104 47.5022C96.0228 47.5022 94.3297 45.8091 94.3297 43.7277V42.2442H101.878V43.7277Z" fill="#333333"/>
<path d="M98.1758 62.1969C97.1832 62.1969 96.3782 63.0016 96.3782 63.9944V82.1974C96.3782 88.0909 91.5835 92.8857 85.6899 92.8857H83.2529V58.9144H86.2326C87.2252 58.9144 88.0301 58.1096 88.0301 57.1168V23.4592C88.0301 22.4664 87.2252 21.6616 86.2326 21.6616H40.1976C39.205 21.6616 38.4 22.4664 38.4 23.4592V57.1168C38.4 58.1096 39.205 58.9144 40.1976 58.9144H43.1772V107.495C43.1772 108.488 43.9821 109.292 44.9747 109.292H81.4552C82.4478 109.292 83.2528 108.488 83.2528 107.495V96.4808H85.6897C93.5654 96.4808 99.9731 90.0733 99.9731 82.1974V63.9944C99.9733 63.0016 99.1685 62.1969 98.1758 62.1969ZM41.9953 55.3193V25.2567H84.4352V55.3193H41.9953ZM79.658 105.697H46.7724V58.9144H79.6579L79.658 105.697Z" fill="#333333"/>
<path d="M98.1745 53.5688C97.1819 53.5688 96.377 54.3736 96.377 55.3664V58.2425C96.377 59.2352 97.1819 60.04 98.1745 60.04C99.1671 60.04 99.972 59.2352 99.972 58.2425V55.3664C99.972 54.3736 99.1673 53.5688 98.1745 53.5688Z" fill="#333333"/>
<path d="M47.438 51.5315H78.9935C79.9861 51.5315 80.791 50.7267 80.791 49.7339V30.842C80.791 29.8492 79.9861 29.0444 78.9935 29.0444H47.438C46.4454 29.0444 45.6405 29.8492 45.6405 30.842V49.7339C45.6405 50.7267 46.4454 51.5315 47.438 51.5315ZM49.2356 32.6396H77.196V47.9365H49.2356V32.6396Z" fill="#333333"/>
<path d="M70.0626 38.6489H56.0418C55.0492 38.6489 54.2443 39.4537 54.2443 40.4465C54.2443 41.4392 55.0492 42.244 56.0418 42.244H70.0626C71.0552 42.244 71.8602 41.4392 71.8602 40.4465C71.8602 39.4537 71.0552 38.6489 70.0626 38.6489Z" fill="#333333"/>
<path d="M53.7914 95.4872C53.8992 96.3797 54.6781 97.069 55.5761 97.069H61.6863C62.6789 97.069 63.4839 96.2642 63.4839 95.2715C63.4839 94.2787 62.6789 93.4739 61.6863 93.4739H59.9143L71.5135 81.8746C72.0274 81.3605 72.1813 80.5872 71.9032 79.9156C71.6249 79.2439 70.9695 78.806 70.2424 78.806H61.5438L71.3096 69.0402C72.0116 68.3382 72.0116 67.2 71.3096 66.4979C70.6075 65.796 69.4697 65.796 68.7674 66.4979L55.9331 79.3323C55.4192 79.8464 55.2653 80.6195 55.5434 81.2911C55.8217 81.9628 56.4771 82.4007 57.2042 82.4007H65.9028L57.3721 90.9315V89.1595C57.3721 88.1667 56.5671 87.3619 55.5745 87.3619C54.5819 87.3619 53.777 88.1667 53.777 89.1595V95.2711C53.7773 95.3439 53.7822 95.4158 53.7914 95.4872C53.7892 95.4699 53.7958 95.5246 53.7914 95.4872Z" fill="#333333"/>
</svg>
