<svg width="66" height="66" viewBox="0 0 66 66" fill="none" xmlns="http://www.w3.org/2000/svg">
<circle cx="33" cy="33" r="33" fill="#3A6178"/>
<path d="M18.5 15C15.4802 15 13 17.4802 13 20.5V43.5C13 46.5198 15.4802 49 18.5 49H47.5C50.5198 49 53 46.5198 53 43.5V20.5C53 17.4802 50.5198 15 47.5 15H18.5ZM18.5 18H47.5C48.8982 18 50 19.1018 50 20.5V43.5C50 44.8982 48.8982 46 47.5 46H18.5C17.1018 46 16 44.8982 16 43.5V20.5C16 19.1018 17.1018 18 18.5 18ZM25 26C24.487 26 24.0269 26.313 23.8379 26.791L20.0879 36.291C19.8349 36.933 20.149 37.6581 20.791 37.9121C21.435 38.1661 22.1581 37.851 22.4121 37.209L22.793 36.25H27.2109L27.5898 37.209C27.7818 37.701 28.253 38 28.752 38C28.904 38 29.059 37.9721 29.209 37.9121C29.851 37.6591 30.1651 36.933 29.9121 36.291L26.1621 26.791C25.9731 26.313 25.513 26 25 26ZM33.25 26C32.56 26 32 26.56 32 27.25V36.75C32 37.44 32.56 38 33.25 38C33.94 38 34.5 37.44 34.5 36.75V35H36.5C38.981 35 41 32.981 41 30.5C41 28.019 38.981 26 36.5 26H33.25ZM44.25 26C43.56 26 43 26.56 43 27.25V36.75C43 37.44 43.56 38 44.25 38C44.94 38 45.5 37.44 45.5 36.75V27.25C45.5 26.56 44.94 26 44.25 26ZM34.5 28.5H36.5C37.603 28.5 38.5 29.397 38.5 30.5C38.5 31.603 37.603 32.5 36.5 32.5H34.5V28.5ZM25 30.6543L26.2227 33.75H23.7773L25 30.6543Z" fill="white"/>
</svg>
