<svg width="66" height="66" viewBox="0 0 66 66" fill="none" xmlns="http://www.w3.org/2000/svg">
<circle cx="33" cy="33" r="33" fill="#3A6178"/>
<path d="M30.2808 13.25C25.7849 13.25 22.1245 16.9104 22.1245 21.4062C22.1245 28.6209 34.3589 35.5239 35.7537 36.2886L36.6245 36.7629L37.4954 36.2886C38.8901 35.5239 51.1245 28.6209 51.1245 21.4062C51.1245 16.9104 47.4641 13.25 42.9683 13.25C40.4124 13.25 38.1184 14.4324 36.6245 16.2874C35.1306 14.4324 32.8367 13.25 30.2808 13.25ZM30.2808 16.875C32.78 16.875 34.812 18.907 34.812 21.4062H38.437C38.437 18.907 40.469 16.875 42.9683 16.875C45.4675 16.875 47.4995 18.907 47.4995 21.4062C47.4995 25.0029 41.1628 29.959 36.6245 32.614C32.0862 29.959 25.7495 25.0029 25.7495 21.4062C25.7495 18.907 27.7815 16.875 30.2808 16.875ZM23.0591 38.625C21.1899 38.6321 19.7668 39.1064 19.7668 39.1064L19.7314 39.1206L9.45117 43.0642L13.0479 53.1604L21.9829 49.7336L34.9182 56.8562L57.2559 47.6025L55.8682 44.2607L35.1377 52.8418L22.2661 45.7546L15.2144 48.4521L14.0532 45.1812L20.9351 42.5403C20.9492 42.5332 21.7988 42.25 23.0591 42.25C24.3335 42.25 25.8203 42.5332 27.0876 43.6802L27.1089 43.6943L27.116 43.7014C28.9851 45.3228 30.394 46.4556 32.3552 47.0715C34.3164 47.6875 36.5396 47.7583 40.2566 47.7441L40.2424 44.1191C36.5962 44.1333 34.6917 44.0059 33.4456 43.6094C32.1995 43.2271 31.3145 42.5403 29.5161 40.9827L29.4949 40.9685C27.3992 39.0852 24.907 38.6179 23.0591 38.625Z" fill="white"/>
</svg>
