<svg width="66" height="66" viewBox="0 0 66 66" fill="none" xmlns="http://www.w3.org/2000/svg">
<circle cx="33" cy="33" r="33" fill="#3A6178"/>
<g clip-path="url(#clip0_365_4686)">
<path d="M36.6883 14.3125C32.5757 14.3125 28.7999 15.7847 25.8558 18.2263L22.4151 14.7856C22.2642 14.6347 22.0844 14.5155 21.8866 14.4353C21.6888 14.3551 21.4768 14.3155 21.2634 14.3187C20.8496 14.3248 20.4545 14.4915 20.1614 14.7836C11.0459 23.898 11.0451 38.726 20.1594 47.8414C29.2737 56.957 44.1018 56.9568 53.2172 47.8414C53.516 47.5425 53.6838 47.1372 53.6838 46.7146C53.6838 46.292 53.516 45.8867 53.2172 45.5878L49.7745 42.145C52.2161 39.2009 53.6883 35.425 53.6883 31.3125C53.6883 21.9425 46.0583 14.3125 36.6883 14.3125ZM36.6883 17.5C37.8836 17.5 39.0364 17.6669 40.1414 17.9503L37.6097 20.4821C36.1417 19.5701 34.6734 18.8461 33.2518 18.355C33.0095 18.2713 32.7675 18.2061 32.5254 18.135C33.8383 17.7227 35.2366 17.5 36.6883 17.5ZM21.4003 18.2782L23.6021 20.48C21.1604 23.4241 19.6883 27.2 19.6883 31.3125C19.6883 40.6825 27.3183 48.3125 36.6883 48.3125C40.8008 48.3125 44.5766 46.8403 47.5208 44.3987L49.7226 46.6005C41.7817 53.3773 29.9253 53.0989 22.4151 45.5878C14.9048 38.0766 14.6239 26.2182 21.4003 18.2782ZM43.3766 19.2224C45.6484 20.4782 47.5226 22.3524 48.7784 24.6241L45.6552 27.7473C44.8872 26.7759 44.0456 25.816 43.1152 24.8856C42.1847 23.9552 41.2249 23.1135 40.2535 22.3456L43.3766 19.2224ZM28.8938 20.8016C29.783 20.7484 30.8976 20.9141 32.2121 21.3682C33.1789 21.7021 34.2183 22.186 35.2875 22.8042L28.18 29.9117C27.5617 28.8425 27.0779 27.8031 26.7439 26.8363C25.8357 24.2073 26.0829 22.3841 26.9203 21.5466C27.3391 21.1279 28.0047 20.8549 28.8938 20.8016ZM37.9791 24.62C38.9525 25.3652 39.9234 26.2012 40.8615 27.1393C41.7998 28.0776 42.6354 29.0481 43.3808 30.0217L35.3975 38.005C34.4241 37.2598 33.4531 36.4238 32.5151 35.4857C31.5767 34.5474 30.7412 33.5769 29.9958 32.6033L37.9791 24.62ZM23.5108 27.1497C23.5819 27.3917 23.6471 27.6338 23.7308 27.876C24.2219 29.2976 24.9459 30.7659 25.8578 32.2339L23.3261 34.7656C23.0427 33.6606 22.8758 32.5078 22.8758 31.3125C22.8758 29.8608 23.0985 28.4625 23.5108 27.1497ZM50.0505 27.8594C50.3338 28.9644 50.5008 30.1172 50.5008 31.3125C50.5008 32.7642 50.2781 34.1625 49.8658 35.4753C49.7947 35.2333 49.7295 34.9912 49.6458 34.749C49.1547 33.3274 48.4307 31.8591 47.5187 30.3911L50.0505 27.8594ZM45.1966 32.7133C45.8148 33.7825 46.2986 34.8219 46.6326 35.7887C47.5409 38.4177 47.2937 40.2409 46.4562 41.0784C45.6187 41.9159 43.7935 42.165 41.1645 41.2568C40.1977 40.9229 39.1583 40.439 38.089 39.8208L45.1966 32.7133ZM27.7214 34.8777C28.4893 35.8491 29.331 36.809 30.2614 37.7394C31.1918 38.6698 32.1516 39.5115 33.1231 40.2794L29.9999 43.4026C27.7282 42.1468 25.8539 40.2726 24.5982 38.0009L27.7214 34.8777ZM35.7669 42.1429C37.2349 43.0549 38.7032 43.7789 40.1248 44.27C40.367 44.3537 40.6091 44.4189 40.8511 44.49C39.5383 44.9023 38.14 45.125 36.6883 45.125C35.4929 45.125 34.3402 44.9581 33.2352 44.6747L35.7669 42.1429Z" fill="white"/>
</g>
<defs>
<clipPath id="clip0_365_4686">
<rect width="48" height="48" fill="white" transform="translate(9 9)"/>
</clipPath>
</defs>
</svg>
