<svg width="66" height="66" viewBox="0 0 66 66" fill="none" xmlns="http://www.w3.org/2000/svg">
<circle cx="33" cy="33" r="33" fill="#3A6178"/>
<path d="M17.9993 16.3333C16.1577 16.3333 14.666 17.8249 14.666 19.6666V39.6666C14.666 41.5083 16.1577 42.9999 17.9993 42.9999H29.666V46.3333H26.3327V49.6666H39.666V46.3333H36.3327V42.9999H47.9994C49.841 42.9999 51.3327 41.5083 51.3327 39.6666V19.6666C51.3327 17.8249 49.841 16.3333 47.9994 16.3333H17.9993ZM17.9993 19.6666H47.9994V39.6666H17.9993V31.3333H22.0228L26.0007 27.3554L31.0007 35.6887L35.3561 31.3333H38.4518C38.7439 31.8391 39.1638 32.2594 39.6694 32.5519C40.175 32.8444 40.7486 32.9989 41.3327 32.9999C42.2167 32.9999 43.0646 32.6487 43.6897 32.0236C44.3148 31.3985 44.666 30.5506 44.666 29.6666C44.666 28.7825 44.3148 27.9347 43.6897 27.3096C43.0646 26.6844 42.2167 26.3333 41.3327 26.3333C40.748 26.3337 40.1737 26.488 39.6675 26.7805C39.1613 27.073 38.7409 27.4936 38.4486 27.9999H33.9759L31.6647 30.3111L26.6647 21.9778L20.6426 27.9999H17.9993V19.6666Z" fill="white"/>
</svg>
