<svg width="128" height="128" viewBox="0 0 128 128" fill="none" xmlns="http://www.w3.org/2000/svg">
<circle cx="64" cy="64" r="64" fill="#54C1BD"/>
<rect x="17.5343" y="25.5098" width="84.1644" height="84.1644" fill="white" fill-opacity="0.01"/>
<mask id="mask0_365_1546" style="mask-type:alpha" maskUnits="userSpaceOnUse" x="17" y="25" width="85" height="85">
<rect x="17.5343" y="25.5098" width="84.1644" height="84.1644" fill="white"/>
</mask>
<g mask="url(#mask0_365_1546)">
<path fill-rule="evenodd" clip-rule="evenodd" d="M88.9518 32.5643C88.462 32.5108 87.9552 32.5135 87.445 32.5849C79.8312 33.655 62.1416 36.5771 44.5956 57.0712H35.3285L25.945 66.8383C24.6404 68.1429 24.2503 70.0894 24.9587 71.7972C25.6635 73.5051 27.316 74.6054 29.1641 74.6054H37.123L37.4861 74.9685C36.528 76.1765 35.9863 77.4544 35.445 78.8589C34.7855 80.5698 34.2365 82.4327 33.7806 84.1876C32.8688 87.6975 32.3285 90.8246 32.3285 90.8246L31.4587 95.7493L36.3833 94.8794C36.3833 94.8794 39.5104 94.3392 43.0203 93.4274C44.7752 92.9715 46.6381 92.4224 48.3491 91.763C49.7536 91.2217 51.0314 90.6799 52.2395 89.7219L52.6025 90.0849V98.0438C52.6025 99.8919 53.7029 101.548 55.4107 102.249C55.9893 102.491 56.592 102.599 57.1847 102.599C58.3455 102.599 59.4676 102.168 60.2532 101.379L70.1367 92.3726V82.6123C90.6309 65.0663 93.5529 47.3767 94.623 39.763C95.1228 36.1913 92.3805 32.9395 88.9518 32.5643V32.5643ZM87.5068 39.7012C86.2542 48.6198 83.4307 66.1251 56.5479 84.1122L43.0959 70.6601C61.0829 43.7773 78.5882 40.9539 87.5068 39.7012V39.7012ZM70.137 53.5642C68.2002 53.5642 66.6301 55.1343 66.6301 57.0711C66.6301 59.0078 68.2002 60.5779 70.137 60.5779C72.0738 60.5779 73.6438 59.0078 73.6438 57.0711C73.6438 55.1343 72.0738 53.5642 70.137 53.5642V53.5642ZM59.6164 64.0848C57.6797 64.0848 56.1096 65.6548 56.1096 67.5916C56.1096 69.5284 57.6797 71.0985 59.6164 71.0985C61.5532 71.0985 63.1233 69.5284 63.1233 67.5916C63.1233 65.6548 61.5532 64.0848 59.6164 64.0848V64.0848ZM42.6027 80.0848L47.1233 84.6053C46.748 84.804 46.3447 85.0203 45.8219 85.2217C44.5072 85.7285 42.848 86.2185 41.2534 86.6327C40.7974 86.7512 40.8199 86.7196 40.3836 86.8245C40.4884 86.3882 40.4569 86.4107 40.5753 85.9546C40.9896 84.3601 41.4796 82.7008 41.9863 81.3861C42.1878 80.8634 42.4041 80.4601 42.6027 80.0848V80.0848Z" fill="white"/>
</g>
</svg>
