<svg width="128" height="126" viewBox="0 0 128 126" fill="none" xmlns="http://www.w3.org/2000/svg">
<ellipse cx="64" cy="62.7809" rx="64" ry="62.7809" fill="#54C1BD"/>
<path fill-rule="evenodd" clip-rule="evenodd" d="M55.9615 27.8772C55.9615 30.7102 55.1073 31.7852 51.462 33.5407C47.0217 35.6785 46.9334 35.6712 44.7725 32.9775L42.5827 30.2459L39.3511 33.1742C37.5738 34.7843 35.1806 37.2019 34.0337 38.5457C32.0495 40.8681 32.0652 41.1173 34.3325 43.574C36.6361 46.0673 36.6458 46.3141 34.6229 50.5984C32.9327 54.1766 31.8535 55.0378 29.0623 55.0378H25.5996L25.9589 62.673C26.3098 70.114 26.4005 70.2985 29.4906 69.9357C32.1692 69.6217 32.952 70.2875 34.5212 74.2114C36.2659 78.5726 36.2344 79.0198 34.0143 81.4447C31.6575 84.0187 31.6611 84.0456 34.8612 87.8852C39.5749 93.5426 42.4786 94.8375 44.4241 92.1511C45.8481 90.1855 46.47 90.1366 50.9792 91.6393C55.215 93.0515 55.9615 93.8052 55.9615 96.6724C55.9615 99.426 56.6269 100.192 59.5911 100.849C61.5874 101.291 64.8541 101.291 66.8504 100.849C69.6513 100.229 70.48 99.3759 70.48 97.1183C70.48 95.1148 71.604 93.6061 74.0492 92.3295C78.6032 89.9522 80.0478 89.9852 82.8365 92.5335C84.9901 94.5016 85.3458 94.355 90.1224 89.5307C94.9002 84.7077 95.0454 84.3485 93.0963 82.174C90.5616 79.3459 90.5374 77.9032 92.9499 73.1913C94.4756 70.213 95.4084 69.618 97.6587 70.1886C100.146 70.8189 100.523 70.4011 100.973 66.5053C101.252 64.0889 101.25 60.5205 100.967 58.5745C100.543 55.6645 99.868 55.0378 97.1542 55.0378C94.3751 55.0378 93.602 54.2633 92.2506 50.1293C90.8048 45.7045 90.8604 45.0619 92.8156 43.6192C95.5148 41.6255 94.1465 38.536 88.408 33.6604L84.505 30.3437L82.4203 32.9433C80.3962 35.466 80.1881 35.4831 75.3413 33.526C71.0656 31.7974 70.4014 31.0485 70.7172 28.3084C71.0753 25.1896 70.8914 25.098 63.5232 24.7437L55.9615 24.3809V27.8772ZM77.3691 43.5984C87.0711 51.5158 89.6131 61.5846 84.6634 72.4987C78.0127 87.1669 59.942 91.0297 47.9013 80.355C39.2325 72.6685 37.5084 59.8547 43.7962 49.8434C48.8329 41.8234 54.4455 39.038 64.6654 39.4852C71.621 39.7894 73.4128 40.3696 77.3691 43.5984ZM56.264 48.6462C52.7698 50.4237 49.9145 52.1767 49.9157 52.542C49.9182 52.9073 52.9126 54.835 56.5701 56.8275L63.2208 60.4497L69.8715 56.8275C73.5289 54.835 76.5234 52.9073 76.5258 52.5432C76.5294 51.9666 63.6176 45.1438 62.8917 45.3392C62.7405 45.3796 59.7581 46.8675 56.264 48.6462ZM48.7022 63.8544V72.8749L54.4492 75.8398C57.6094 77.4695 60.6038 78.999 61.1035 79.2384C61.6032 79.4779 62.0109 75.6151 62.0109 70.654V61.6334L56.264 58.6685C53.1038 57.0389 50.1093 55.5094 49.6096 55.2699C49.11 55.0305 48.7022 58.8933 48.7022 63.8544ZM70.7825 58.831L64.4307 62.5692V71.0205C64.4307 75.6676 64.773 79.4705 65.1905 79.4705C65.6091 79.4705 68.8757 77.781 72.4497 75.7164L78.9492 71.9611V63.5001C78.9492 58.8457 78.5415 55.05 78.0418 55.0647C77.5421 55.0794 74.2766 56.7738 70.7825 58.831Z" fill="white"/>
</svg>
