<svg width="128" height="128" viewBox="0 0 128 128" fill="none" xmlns="http://www.w3.org/2000/svg">
<circle cx="64" cy="64" r="64" fill="#54C1BD"/>
<path fill-rule="evenodd" clip-rule="evenodd" d="M67.4232 35.2557L63.9681 38.8151L59.4562 37.4351C56.9748 36.6758 52.4097 36.0542 49.3107 36.0542C32.0729 36.0542 19.2176 54.9649 24.2734 72.886C26.787 81.7965 36.5653 90.3077 46.6855 92.393C49.3048 92.9326 49.3293 92.9047 49.3293 89.3417C49.3293 86.4309 49.0323 85.7456 47.7726 85.7456C46.9164 85.7456 43.8944 84.5504 41.0577 83.0902C37.2743 81.1418 35.2201 79.3764 33.3479 76.4629C23.1008 60.5216 37.6863 38.1543 55.1652 43.0049L58.8691 44.0319L54.765 48.3254L50.6618 52.618H61.4173H72.172V42.1567C72.172 36.4029 71.8809 31.6953 71.5248 31.6953C71.1694 31.6953 69.3234 33.2976 67.4232 35.2557ZM36.5425 56.3484L32.6398 59.159L35.5306 63.517C37.1203 65.9135 38.7269 68.4103 39.1 69.0668C39.6584 70.0475 40.1905 69.9804 42.1059 68.6875C44.3995 67.1393 44.4562 67.1471 46.0163 69.2385C46.8868 70.4058 47.6085 71.6376 47.6186 71.9741C47.6288 72.3115 48.8268 71.9192 50.2802 71.1024C52.2667 69.9865 53.0188 69.8854 53.3081 70.6961C54.2126 73.2286 56.7362 75.2346 59.6931 75.7734C62.7574 76.3304 62.8657 76.2642 62.8657 73.8275C62.8657 71.4145 64.5248 64.1735 65.7447 61.2617C66.2904 59.9584 60.5324 58.1704 42.1381 53.9283C41.1262 53.6947 38.8767 54.6676 36.5425 56.3484ZM76.7414 57.2681C68.4292 61.3567 64.9495 70.8452 68.6948 79.2073C74.6381 92.4775 92.5485 92.4775 98.4918 79.2073C103.108 68.902 96.3446 56.8235 85.2803 55.61C81.9199 55.2412 80.1728 55.5803 76.7414 57.2681ZM93.98 70.5392C96.0519 72.0343 96.5282 75.9913 94.8454 77.7253C92.3971 80.2482 86.5544 77.8186 86.5544 74.2774C86.5544 72.4379 89.4072 69.1818 91.0189 69.1818C91.6136 69.1818 92.9461 69.793 93.98 70.5392Z" fill="white"/>
</svg>
