<svg width="450" height="141" viewBox="0 0 450 141" fill="none" xmlns="http://www.w3.org/2000/svg">
<path d="M17.0951 125.631C15.3306 125.583 13.5693 125.583 11.4596 125.583C11.4358 126.141 11.4596 126.974 11.4596 127.531V137.13C11.4596 138.013 11.4596 139.822 11.5024 140.468H9.62545C9.72048 139.36 9.74266 136.39 9.74266 134.88V129.826C9.74266 128.668 9.76642 126.817 9.72049 125.583C7.60759 125.583 5.66258 125.608 3.99316 125.631C4.06059 125.109 4.09129 124.582 4.08503 124.056C6.07914 124.099 8.25856 124.148 10.6011 124.148C12.9437 124.148 15.2181 124.099 17.2534 124.056C17.1498 124.575 17.0968 125.102 17.0951 125.631V125.631Z" fill="#54C1BD"/>
<path d="M32.7471 140.537C31.3786 140.468 29.7108 140.446 28.0889 140.446C26.467 140.446 24.8198 140.468 23.521 140.561C23.6129 139.452 23.6366 136.389 23.6366 134.88V129.756C23.6366 128.273 23.6129 125.163 23.521 124.054C24.8214 124.097 26.372 124.146 27.9559 124.146C29.5397 124.146 31.1236 124.097 32.4985 124.054C32.3987 124.557 32.3457 125.069 32.3401 125.582C30.9938 125.582 29.5825 125.559 27.959 125.559C27.2859 125.559 26.0362 125.559 25.3852 125.582C25.363 126.14 25.363 126.997 25.363 127.461V131.193L31.4087 131.145C31.3644 131.585 31.3422 132.144 31.3422 132.653L25.363 132.629V137.126C25.363 137.59 25.363 138.448 25.3852 139.004C26.1487 139.03 27.1449 139.03 27.9353 139.03C29.7647 139.03 31.3422 139.004 32.8928 138.96C32.7994 139.481 32.7507 140.008 32.7471 140.537V140.537Z" fill="#54C1BD"/>
<path d="M51.4895 139.103C49.9976 140.276 48.1506 140.905 46.2532 140.887C45.181 140.894 44.1184 140.685 43.1285 140.273C42.1386 139.861 41.2417 139.254 40.4912 138.488C39.7407 137.722 39.1518 136.813 38.7597 135.815C38.3676 134.817 38.1802 133.751 38.2087 132.679C38.1386 131.109 38.5041 129.55 39.2648 128.175C40.0255 126.8 41.1517 125.662 42.5189 124.887C43.8861 124.112 45.441 123.73 47.0116 123.784C48.5822 123.838 50.1073 124.325 51.4183 125.192L50.9067 126.746C49.6537 125.816 48.1318 125.32 46.5716 125.333C45.6712 125.333 44.7802 125.516 43.9529 125.871C43.1255 126.227 42.379 126.747 41.7589 127.399C41.1387 128.052 40.6578 128.824 40.3453 129.669C40.0329 130.513 39.8955 131.412 39.9414 132.311C39.9414 136.555 42.6071 139.358 46.3625 139.358C47.3365 139.36 48.3011 139.168 49.2004 138.794C50.0998 138.42 50.9161 137.872 51.602 137.18L51.4895 139.103Z" fill="#54C1BD"/>
<path d="M69.3242 140.47C69.4192 139.361 69.4414 136.391 69.4414 134.882V132.704H60.0965V137.131C60.0965 138.015 60.0965 139.824 60.1408 140.47H58.2671C58.359 139.361 58.3827 136.391 58.3827 134.882V129.758C58.3827 128.275 58.359 125.285 58.2671 124.17C58.894 124.177 59.5207 124.146 60.144 124.078C60.0997 124.751 60.0997 126.582 60.0997 127.487V131.267H69.4446V129.758C69.4446 128.275 69.4224 125.285 69.3274 124.17C69.9558 124.177 70.5842 124.146 71.209 124.078C71.1599 124.751 71.1346 126.582 71.1346 127.487V137.129C71.1346 138.013 71.1599 139.822 71.209 140.468L69.3242 140.47Z" fill="#54C1BD"/>
<path d="M79.4238 134.882L79.4919 129.457C79.4919 127.975 79.4919 125.007 79.3984 123.893L79.8863 123.776L91.0384 137.34V129.757C91.0384 128.274 90.9893 125.284 90.9022 124.169C91.537 124.175 92.1716 124.145 92.8029 124.077C92.7316 124.75 92.6857 126.581 92.6857 127.485L92.5669 137.229C92.5447 138.132 92.5447 140.104 92.6144 140.754L92.1281 140.871L81.0409 127.469V137.131C81.0409 138.037 81.0647 139.824 81.1106 140.47H79.21C79.3303 139.357 79.3984 136.39 79.4238 134.882Z" fill="#54C1BD"/>
<path d="M99.7172 132.75C99.7172 127.74 103.126 123.776 108.066 123.776C109.123 123.774 110.17 123.986 111.144 124.398C112.117 124.81 112.998 125.413 113.734 126.173C114.469 126.933 115.044 127.833 115.424 128.819C115.804 129.806 115.981 130.859 115.946 131.915C115.946 136.924 112.54 140.887 107.599 140.887C106.542 140.888 105.495 140.676 104.522 140.265C103.548 139.853 102.667 139.249 101.932 138.49C101.197 137.731 100.621 136.832 100.241 135.845C99.8604 134.859 99.6823 133.807 99.7172 132.75V132.75ZM114.186 132.215C114.186 128.087 111.569 125.236 107.928 125.236C104.078 125.236 101.459 128.529 101.459 132.448C101.459 136.552 104.079 139.426 107.741 139.426C111.59 139.426 114.186 136.135 114.186 132.216V132.215Z" fill="#54C1BD"/>
<path d="M132.234 140.539C130.838 140.47 129.194 140.448 127.569 140.448C125.996 140.448 124.302 140.47 122.96 140.539C123.052 139.431 123.096 136.391 123.096 134.882V129.758C123.096 128.275 123.052 125.285 122.96 124.17C123.587 124.177 124.214 124.146 124.837 124.078C124.813 124.751 124.793 126.582 124.793 127.487V137.107C124.793 137.639 124.793 138.452 124.837 138.984C125.485 138.984 126.78 139.008 127.48 139.008C129.264 139.008 130.862 138.984 132.37 138.963C132.287 139.485 132.241 140.012 132.234 140.539Z" fill="#54C1BD"/>
<path d="M136.875 132.75C136.875 127.74 140.282 123.776 145.221 123.776C146.279 123.774 147.326 123.985 148.3 124.396C149.274 124.808 150.156 125.412 150.892 126.171C151.628 126.931 152.203 127.831 152.583 128.818C152.964 129.805 153.141 130.858 153.105 131.915C153.105 136.924 149.697 140.887 144.758 140.887C143.701 140.888 142.655 140.677 141.681 140.265C140.707 139.853 139.826 139.25 139.091 138.491C138.355 137.732 137.78 136.832 137.399 135.846C137.019 134.86 136.841 133.807 136.875 132.75V132.75ZM151.339 132.215C151.339 128.087 148.723 125.236 145.083 125.236C141.233 125.236 138.616 128.529 138.616 132.448C138.616 136.552 141.233 139.426 144.895 139.426C148.745 139.426 151.339 136.135 151.339 132.216V132.215Z" fill="#54C1BD"/>
<path d="M167.415 140.872C166.313 140.893 165.217 140.693 164.194 140.283C163.17 139.873 162.24 139.261 161.457 138.485C160.674 137.709 160.055 136.783 159.636 135.763C159.218 134.743 159.009 133.649 159.021 132.547C158.995 131.392 159.203 130.245 159.632 129.173C160.06 128.101 160.701 127.127 161.515 126.308C162.33 125.49 163.301 124.844 164.371 124.41C165.441 123.977 166.587 123.763 167.742 123.783C169.511 123.797 171.243 124.294 172.75 125.221L172.238 126.805C170.866 125.844 169.228 125.334 167.553 125.345C165.733 125.406 164.008 126.173 162.744 127.485C161.48 128.796 160.777 130.549 160.784 132.37C160.79 134.191 161.506 135.939 162.779 137.241C164.053 138.543 165.783 139.298 167.604 139.346C168.898 139.379 170.177 139.067 171.312 138.443V134.959C171.312 134.59 171.312 133.915 171.267 133.476C170.317 133.453 170.594 133.453 169.62 133.453C168.459 133.453 167.765 133.453 166.441 133.5C166.489 132.973 166.489 132.443 166.441 131.916C167.787 131.961 168.576 131.986 169.62 131.986C171.126 131.986 171.866 131.961 173.105 131.892C173.011 132.821 172.986 135.762 172.986 137.154V139.242C171.345 140.353 169.397 140.923 167.415 140.872V140.872Z" fill="#54C1BD"/>
<path d="M180.155 124.009L185.141 131.893L186.856 129.228C187.504 128.254 189.381 125.17 190.034 124.126H192.026L185.955 133.352V137.13C185.955 138.014 185.977 139.822 186.022 140.469H184.121C184.213 139.36 184.257 136.46 184.257 134.952V133.422L181.778 129.571C181.129 128.529 178.951 125.19 178.256 124.17L180.155 124.009Z" fill="#54C1BD"/>
<path d="M217.124 125.63C215.364 125.582 213.598 125.582 211.49 125.582C211.468 126.14 211.49 126.973 211.49 127.53V137.129C211.49 138.013 211.49 139.821 211.534 140.468H209.657C209.752 139.359 209.775 136.389 209.775 134.88V129.825C209.775 128.668 209.797 126.816 209.752 125.582C207.639 125.582 205.693 125.608 204.023 125.63C204.092 125.108 204.122 124.582 204.115 124.055C206.111 124.098 208.292 124.147 210.63 124.147C212.968 124.147 215.247 124.098 217.282 124.055C217.181 124.574 217.128 125.101 217.124 125.63V125.63Z" fill="#54C1BD"/>
<path d="M225.241 128.737C226.241 126.534 226.839 125.189 227.329 123.914L227.793 123.773L233.383 136.064C234.1 137.686 234.981 139.539 235.442 140.467L233.585 140.625L231.175 135.248H223.987L223.616 136.105C222.97 137.659 222.222 139.536 221.852 140.462H219.951L225.241 128.737ZM224.619 133.839H230.555L227.587 127.045L224.619 133.839Z" fill="#54C1BD"/>
<path d="M243.268 132.309V137.129C243.268 138.013 243.292 139.821 243.312 140.468H241.436C241.527 139.359 241.572 136.389 241.572 134.88V129.756C241.572 128.273 241.527 125.283 241.436 124.168C242.062 124.174 242.689 124.144 243.312 124.076C243.29 124.749 243.268 126.58 243.268 127.484V131.864L246.563 128.554C247.885 127.233 249.741 125.356 250.876 124.149H253.093L245.12 131.986L248.829 135.762C250.096 137.108 252.117 139.17 253.395 140.469L251.308 140.628L243.268 132.309Z" fill="#54C1BD"/>
<path d="M268.609 140.537C267.242 140.468 265.574 140.446 263.951 140.446C262.327 140.446 260.682 140.468 259.383 140.561C259.478 139.452 259.5 136.389 259.5 134.88V129.756C259.5 128.273 259.478 125.163 259.383 124.054C260.683 124.097 262.234 124.146 263.818 124.146C265.402 124.146 266.985 124.097 268.363 124.054C268.263 124.557 268.21 125.069 268.205 125.582C266.86 125.582 265.448 125.559 263.824 125.559C263.151 125.559 261.9 125.559 261.25 125.582C261.226 126.14 261.226 126.997 261.226 127.461V131.193L267.277 131.145C267.233 131.585 267.207 132.144 267.207 132.653L261.228 132.629V137.126C261.228 137.59 261.228 138.448 261.252 139.004C262.015 139.03 263.015 139.03 263.802 139.03C265.633 139.03 267.207 139.004 268.763 138.96C268.664 139.48 268.612 140.008 268.609 140.537V140.537Z" fill="#54C1BD"/>
<path d="M278.404 140.886C276.808 140.846 275.249 140.391 273.882 139.567L273.999 137.734C275.289 138.736 276.863 139.304 278.496 139.356C278.929 139.413 279.37 139.377 279.788 139.251C280.207 139.125 280.594 138.911 280.924 138.623C281.253 138.336 281.518 137.982 281.7 137.584C281.882 137.187 281.978 136.755 281.98 136.318C281.98 132.772 274.536 132.704 274.536 128.345C274.546 127.71 274.685 127.084 274.946 126.505C275.207 125.925 275.583 125.406 276.052 124.978C276.522 124.55 277.074 124.223 277.674 124.016C278.275 123.81 278.911 123.728 279.544 123.777C280.867 123.779 282.159 124.174 283.257 124.913L282.695 126.42C281.761 125.73 280.637 125.343 279.476 125.312C279.073 125.264 278.665 125.301 278.277 125.42C277.89 125.54 277.531 125.74 277.225 126.006C276.919 126.273 276.673 126.6 276.501 126.968C276.33 127.335 276.237 127.735 276.229 128.14C276.229 131.503 283.673 131.479 283.673 136.093C283.67 136.763 283.528 137.424 283.256 138.036C282.983 138.648 282.587 139.197 282.091 139.647C281.596 140.098 281.013 140.441 280.378 140.654C279.743 140.867 279.071 140.946 278.404 140.886Z" fill="#54C1BD"/>
<path d="M297.483 132.75C297.483 127.74 300.889 123.776 305.83 123.776C306.888 123.774 307.935 123.985 308.909 124.397C309.883 124.808 310.765 125.412 311.5 126.172C312.236 126.931 312.811 127.832 313.191 128.818C313.572 129.805 313.749 130.859 313.713 131.915C313.713 136.924 310.305 140.887 305.365 140.887C304.308 140.888 303.261 140.677 302.288 140.265C301.314 139.853 300.433 139.25 299.698 138.491C298.962 137.731 298.387 136.832 298.007 135.846C297.626 134.859 297.448 133.807 297.483 132.75V132.75ZM311.951 132.215C311.951 128.087 309.331 125.236 305.689 125.236C301.842 125.236 299.222 128.529 299.222 132.448C299.222 136.552 301.844 139.426 305.503 139.426C309.347 139.426 311.944 136.135 311.944 132.216L311.951 132.215Z" fill="#54C1BD"/>
<path d="M320.223 124.078L325.697 137.433L329.264 128.553C329.898 127.023 330.565 125.12 330.91 124.17H332.839L327.875 135.949C326.925 138.167 326.393 139.497 325.975 140.772L325.485 140.908L320.293 128.618C319.62 126.996 318.787 125.143 318.342 124.213L320.223 124.078Z" fill="#54C1BD"/>
<path d="M348.028 140.537C346.661 140.468 344.993 140.446 343.37 140.446C341.746 140.446 340.101 140.468 338.802 140.561C338.897 139.452 338.921 136.389 338.921 134.88V129.756C338.921 128.273 338.897 125.163 338.802 124.054C340.102 124.097 341.653 124.146 343.237 124.146C344.821 124.146 346.404 124.097 347.784 124.054C347.682 124.557 347.629 125.069 347.626 125.582C346.281 125.582 344.868 125.559 343.245 125.559C342.573 125.559 341.322 125.559 340.671 125.582C340.649 126.14 340.649 126.997 340.649 127.461V131.193L346.696 131.145C346.653 131.585 346.629 132.144 346.629 132.653L340.649 132.629V137.126C340.649 137.59 340.649 138.448 340.671 139.004C341.434 139.03 342.435 139.03 343.221 139.03C345.052 139.03 346.629 139.004 348.182 138.96C348.084 139.48 348.032 140.008 348.028 140.537V140.537Z" fill="#54C1BD"/>
<path d="M363.989 140.63L359.489 133.66H356.451V137.135C356.451 138.019 356.477 139.828 356.499 140.474H354.622C354.717 139.366 354.763 136.396 354.763 134.886V129.763C354.763 128.28 354.719 125.266 354.622 124.154C355.572 124.154 357.631 124.084 358.702 124.062C362.553 124.013 364.615 126.148 364.563 128.605C364.556 129.654 364.212 130.673 363.582 131.512C362.952 132.351 362.068 132.965 361.062 133.263L363.563 136.996C364.17 137.902 365.396 139.617 365.977 140.382L363.989 140.63ZM359.169 132.214C359.635 132.25 360.104 132.189 360.545 132.035C360.986 131.881 361.39 131.637 361.733 131.319C362.075 131.001 362.347 130.615 362.533 130.187C362.719 129.758 362.814 129.295 362.812 128.828C362.812 126.769 361.491 125.559 358.826 125.559C357.991 125.559 357.158 125.559 356.459 125.608V132.214H359.169Z" fill="#54C1BD"/>
<path d="M400.508 83.6861L415.826 66.775V0L400.508 16.8826V83.6861Z" fill="#3A6178"/>
<path d="M366.313 34.1675L383.216 49.4947H450.001L433.115 34.1675H366.313Z" fill="#54C1BD"/>
<path d="M21.8909 104.695C19.8947 105.988 17.5579 106.655 15.1799 106.611C8.76997 106.611 6.11538 103.002 6.11538 96.5903V77.2795H0L1.7692 71.3843H6.18982L6.85346 64.1602L12.8944 62.5415V71.3827H21.9621C21.818 73.0062 21.742 74.6249 21.742 77.2779H12.896V96.142C12.896 99.6028 14.152 100.563 16.6577 100.563C18.6239 100.471 20.531 99.8613 22.1855 98.795L21.8909 104.695Z" fill="#3A6178"/>
<path d="M54.3145 90.0297L34.1992 90.6157C34.7155 97.4708 38.2524 100.935 44.8112 100.935C49.3847 100.812 53.7577 99.0314 57.1164 95.9249L56.8234 102.851C53.1139 105.467 48.6911 106.881 44.1523 106.903C32.8022 106.903 27.4233 98.8693 27.4233 89.6591C27.4233 79.047 34.1279 70.6445 44.5911 70.6445C54.617 70.6445 58.7431 78.1632 58.7431 87.3735L54.3145 90.0297ZM52.398 85.0183C51.6631 79.3416 49.3063 76.3228 44.2173 76.3228C38.7671 76.3228 35.3016 80.3031 34.3449 85.533L52.398 85.0183Z" fill="#3A6178"/>
<path d="M91.5239 79.9336C88.8171 77.8033 85.465 76.6591 82.0206 76.6898C75.5378 76.6898 70.9682 81.8469 70.9682 88.4818C70.9682 96.6625 76.4928 100.936 82.5306 100.936C84.5262 100.985 86.5108 100.625 88.3616 99.8772C90.2125 99.1294 91.8903 98.0099 93.2915 96.5881L92.9985 103.589C89.6904 105.871 85.738 107.033 81.7212 106.904C79.4307 106.961 77.1522 106.556 75.022 105.712C72.8917 104.868 70.9534 103.604 69.3228 101.994C67.6923 100.385 66.4031 98.4628 65.5322 96.3436C64.6613 94.2243 64.2266 91.9512 64.2542 89.6602C64.2542 79.0482 71.8473 70.6457 82.3104 70.6457C86.2683 70.6032 90.1465 71.7588 93.4356 73.9607L91.5239 79.9336Z" fill="#3A6178"/>
<path d="M124.177 105.58C124.545 102.412 124.694 97.3262 124.694 93.0513V84.2053C124.694 79.9288 123.29 76.6154 118.797 76.6154C113.93 76.6154 108.695 81.4066 108.695 85.8256V98.4318C108.671 100.818 108.771 103.204 108.994 105.58H101.476C101.773 102.412 101.916 97.8394 101.916 93.4916V65.4141C101.916 61.1376 101.772 56.4208 101.476 53.2531C103.997 53.0696 106.507 52.7524 108.994 52.3027C108.774 54.2192 108.695 57.8305 108.695 60.3362V77.8048C109.942 75.7361 111.675 74.0032 113.744 72.7569C115.812 71.5105 118.155 70.7885 120.566 70.6536C127.931 70.6536 131.468 75.2231 131.468 82.8907V97.9962C131.468 100.576 131.615 103.671 131.766 105.589L124.177 105.58Z" fill="#3A6178"/>
<path d="M156.01 106.906C145.984 106.906 139.65 98.8725 139.65 89.6622C139.65 79.0502 146.505 70.6477 156.967 70.6477C167.064 70.6477 173.403 78.6812 173.403 87.8946C173.403 98.5066 166.551 106.906 156.01 106.906ZM156.672 76.6174C150.408 76.6174 146.353 81.9218 146.353 88.5567C146.353 96.7359 150.338 100.936 156.379 100.936C162.865 100.936 166.695 95.5511 166.695 88.8497C166.695 80.9588 162.275 76.6174 156.672 76.6174V76.6174Z" fill="#54C1BD"/>
<path d="M203.98 105.581C204.349 102.413 204.495 97.327 204.495 93.0521V84.2061C204.495 79.9296 203.098 76.6161 198.597 76.6161C193.733 76.6161 188.506 81.4074 188.506 85.8264V97.9875C188.506 100.568 188.576 103.663 188.796 105.581H181.282C181.572 102.413 181.72 97.327 181.72 93.0521V84.2061C181.72 79.9296 181.572 74.8454 181.282 71.676C183.497 71.6748 185.711 71.5516 187.913 71.307L188.427 77.8674C189.678 75.782 191.42 74.0337 193.501 72.7747C195.582 71.5158 197.939 70.7841 200.368 70.6433C207.739 70.6433 211.276 75.2128 211.276 82.8804V97.9859C211.276 100.566 211.425 103.661 211.569 105.579L203.98 105.581Z" fill="#54C1BD"/>
<path d="M247.391 75.657V66.0777C247.391 59.6677 247.391 57.0892 247.242 53.1801C247.681 53.1801 248.566 53.1089 249.154 53.0344C249.154 53.0344 249.084 58.4196 249.084 62.392V97.8393C249.024 100.371 249.098 102.905 249.306 105.429H247.761L247.392 100.272C245.694 102.262 241.345 106.535 235.155 106.535C226.091 106.535 220.487 99.4612 220.487 90.1733C220.487 79.7102 227.198 72.1947 237.292 72.1947C240.958 72.1393 244.529 73.3636 247.391 75.657V75.657ZM222.186 89.7346C222.186 98.6503 227.199 104.918 235.38 104.918C240.539 104.918 244.735 101.451 247.394 98.1371V77.8634C246.043 76.537 244.44 75.495 242.679 74.7991C240.918 74.1032 239.036 73.7675 237.143 73.8118C228.006 73.8166 222.186 80.8902 222.186 89.7346Z" fill="#3A6178"/>
<path d="M259.318 97.5449C259.318 92.3862 263.001 87.229 275.316 87.229C277.387 87.2419 279.455 87.389 281.507 87.6694L281.578 85.5327C281.8 77.6465 278.411 73.812 272.295 73.812C268.749 73.9266 265.305 75.0232 262.345 76.9797L261.829 75.3562C264.96 73.3586 268.582 72.2626 272.295 72.1885C278.705 72.1885 283.493 75.947 283.273 84.7883L282.833 99.4551C282.757 103.435 283.793 104.468 285.484 104.468C286.496 104.392 287.466 104.035 288.284 103.435L288.21 104.912C287.35 105.588 286.284 105.952 285.19 105.943C282.904 105.943 280.767 104.834 281.36 97.9076C280.392 100.379 278.697 102.498 276.499 103.985C274.3 105.472 271.702 106.256 269.048 106.234C262.415 106.24 259.318 102.189 259.318 97.5449ZM281.353 92.3862L281.423 89.1424C279.369 88.9136 277.304 88.791 275.236 88.7749C264.032 88.7749 261.083 93.1243 261.083 97.4008C261.083 101.231 263.592 104.687 269.34 104.687C272.559 104.633 275.627 103.311 277.877 101.009C280.127 98.7062 281.378 95.6088 281.358 92.3894L281.353 92.3862Z" fill="#3A6178"/>
<path d="M310.171 104.916C308.591 106.009 306.706 106.576 304.786 106.535C300.29 106.535 297.861 103.885 297.861 99.3867V74.4025H292.476L293.066 72.9295H297.929L298.228 65.3395L299.552 65.0449V72.9311H309.353C309.203 73.4074 309.129 73.9046 309.133 74.4041H299.552V98.8719C299.552 103.001 301.77 104.918 305.151 104.918C306.975 104.926 308.754 104.357 310.236 103.294L310.171 104.916Z" fill="#3A6178"/>
<path d="M344.435 88.2615L318.346 88.8475C318.053 99.0176 324.094 104.916 332.499 104.916C337.031 104.898 341.393 103.189 344.732 100.123L344.584 102.116C341.083 105.062 336.629 106.633 332.054 106.535C323.066 106.535 316.651 99.7557 316.651 90.2477C316.651 80.076 323.137 72.1914 332.648 72.1914C341.125 72.1914 345.769 78.6742 345.769 87.2969L344.435 88.2615ZM344.068 86.7109C343.699 78.6774 339.422 73.8164 332.277 73.8164C324.76 73.8164 319.448 80.0775 318.498 87.3001L344.068 86.7109Z" fill="#3A6178"/>
<path d="M369.497 74.1104C362.422 74.1864 357.925 81.9965 357.925 87.5243V97.9874C357.925 100.568 357.925 102.924 358 105.581H356.085C356.155 102.413 356.234 97.3269 356.234 93.052V85.4573C356.269 81.3257 356.097 77.195 355.716 73.0808L357.485 72.6373L357.778 82.0694C359.105 78.2348 362.938 72.6373 369.721 72.1938L369.497 74.1104Z" fill="#3A6178"/>
</svg>
