<svg width="450" height="161" viewBox="0 0 450 161" fill="none" xmlns="http://www.w3.org/2000/svg">
<path d="M17.0965 143.218C15.332 143.164 13.5707 143.164 11.461 143.164C11.4373 143.8 11.461 144.749 11.461 145.385V156.327C11.461 157.334 11.461 159.396 11.5038 160.133H9.62689C9.72192 158.869 9.7441 155.484 9.7441 153.763V148.001C9.7441 146.681 9.76786 144.571 9.72193 143.164C7.60904 143.164 5.66403 143.193 3.99463 143.218C4.06206 142.623 4.09275 142.023 4.08649 141.423C6.08059 141.472 8.26001 141.528 10.6026 141.528C12.9451 141.528 15.2196 141.472 17.2548 141.423C17.1512 142.014 17.0982 142.615 17.0965 143.218V143.218Z" fill="white"/>
<path d="M32.7495 160.212C31.381 160.133 29.7132 160.108 28.0913 160.108C26.4694 160.108 24.8222 160.133 23.5234 160.24C23.6153 158.976 23.6391 155.484 23.6391 153.763V147.922C23.6391 146.232 23.6153 142.685 23.5234 141.421C24.8238 141.47 26.3744 141.526 27.9583 141.526C29.5422 141.526 31.126 141.47 32.5008 141.421C32.4011 141.995 32.3481 142.579 32.3424 143.164C30.9962 143.164 29.5849 143.137 27.9614 143.137C27.2883 143.137 26.0386 143.137 25.3877 143.164C25.3655 143.799 25.3655 144.776 25.3655 145.305V149.559L31.4111 149.505C31.3668 150.007 31.3446 150.644 31.3446 151.224L25.3655 151.197V156.323C25.3655 156.852 25.3655 157.831 25.3877 158.465C26.1511 158.494 27.1473 158.494 27.9377 158.494C29.7671 158.494 31.3446 158.465 32.8952 158.414C32.8018 159.008 32.753 159.609 32.7495 160.212V160.212Z" fill="white"/>
<path d="M51.488 158.577C49.996 159.913 48.1491 160.63 46.2517 160.61C45.1795 160.618 44.1169 160.38 43.127 159.91C42.1371 159.44 41.2402 158.748 40.4897 157.875C39.7392 157.002 39.1504 155.966 38.7582 154.829C38.3661 153.691 38.1787 152.475 38.2072 151.253C38.1371 149.463 38.5026 147.686 39.2633 146.119C40.024 144.551 41.1502 143.254 42.5174 142.371C43.8846 141.487 45.4395 141.052 47.0101 141.113C48.5807 141.175 50.1058 141.73 51.4167 142.718L50.9051 144.489C49.6522 143.429 48.1303 142.864 46.5701 142.879C45.6697 142.879 44.7787 143.088 43.9514 143.493C43.124 143.898 42.3775 144.49 41.7574 145.234C41.1372 145.979 40.6563 146.859 40.3438 147.821C40.0314 148.784 39.894 149.809 39.94 150.834C39.94 155.672 42.6056 158.867 46.361 158.867C47.335 158.869 48.2996 158.651 49.1989 158.225C50.0983 157.798 50.9146 157.173 51.6005 156.385L51.488 158.577Z" fill="white"/>
<path d="M69.3271 160.135C69.4221 158.871 69.4443 155.486 69.4443 153.765V151.282H60.0994V156.329C60.0994 157.336 60.0994 159.399 60.1438 160.135H58.27C58.3619 158.871 58.3857 155.486 58.3857 153.765V147.923C58.3857 146.233 58.3619 142.824 58.27 141.553C58.8969 141.561 59.5237 141.526 60.1469 141.448C60.1026 142.216 60.1026 144.303 60.1026 145.334V149.644H69.4475V147.923C69.4475 146.233 69.4253 142.824 69.3302 141.553C69.9587 141.561 70.5871 141.526 71.2119 141.448C71.1628 142.216 71.1374 144.303 71.1374 145.334V156.327C71.1374 157.335 71.1628 159.397 71.2119 160.133L69.3271 160.135Z" fill="white"/>
<path d="M79.4238 153.764L79.4919 147.58C79.4919 145.89 79.4919 142.506 79.3984 141.237L79.8863 141.104L91.0384 156.566V147.921C91.0384 146.231 90.9893 142.822 90.9022 141.551C91.537 141.559 92.1716 141.524 92.8028 141.447C92.7315 142.214 92.6856 144.301 92.6856 145.332L92.5668 156.44C92.5446 157.469 92.5446 159.717 92.6143 160.457L92.1281 160.591L81.0409 145.314V156.328C81.0409 157.361 81.0647 159.398 81.1106 160.134H79.21C79.3303 158.865 79.3984 155.483 79.4238 153.764Z" fill="white"/>
<path d="M99.7152 151.334C99.7152 145.623 103.124 141.104 108.064 141.104C109.121 141.102 110.168 141.343 111.142 141.812C112.115 142.282 112.996 142.97 113.732 143.836C114.467 144.702 115.042 145.728 115.422 146.853C115.802 147.978 115.979 149.178 115.944 150.383C115.944 156.092 112.538 160.61 107.597 160.61C106.54 160.611 105.493 160.37 104.52 159.901C103.546 159.431 102.665 158.743 101.93 157.878C101.195 157.012 100.619 155.987 100.239 154.863C99.8585 153.738 99.6804 152.538 99.7152 151.334V151.334ZM114.184 150.724C114.184 146.018 111.567 142.768 107.926 142.768C104.076 142.768 101.457 146.522 101.457 150.989C101.457 155.668 104.077 158.945 107.739 158.945C111.588 158.945 114.184 155.193 114.184 150.726V150.724Z" fill="white"/>
<path d="M132.234 160.214C130.839 160.135 129.195 160.109 127.57 160.109C125.997 160.109 124.302 160.135 122.96 160.214C123.052 158.95 123.097 155.485 123.097 153.764V147.923C123.097 146.233 123.052 142.824 122.96 141.553C123.587 141.561 124.214 141.526 124.837 141.448C124.814 142.216 124.793 144.303 124.793 145.334V156.301C124.793 156.908 124.793 157.834 124.837 158.441C125.485 158.441 126.781 158.468 127.481 158.468C129.264 158.468 130.862 158.441 132.37 158.417C132.287 159.012 132.241 159.612 132.234 160.214Z" fill="white"/>
<path d="M136.874 151.334C136.874 145.623 140.281 141.104 145.22 141.104C146.278 141.101 147.325 141.342 148.299 141.811C149.273 142.28 150.155 142.968 150.891 143.834C151.627 144.7 152.202 145.726 152.582 146.852C152.963 147.977 153.14 149.178 153.104 150.383C153.104 156.092 149.696 160.61 144.757 160.61C143.7 160.611 142.654 160.37 141.68 159.901C140.706 159.432 139.825 158.744 139.09 157.878C138.354 157.013 137.779 155.987 137.398 154.863C137.018 153.739 136.84 152.539 136.874 151.334V151.334ZM151.338 150.724C151.338 146.018 148.722 142.768 145.082 142.768C141.232 142.768 138.615 146.522 138.615 150.989C138.615 155.668 141.232 158.945 144.894 158.945C148.744 158.945 151.338 155.193 151.338 150.726V150.724Z" fill="white"/>
<path d="M167.419 160.594C166.316 160.618 165.221 160.39 164.197 159.922C163.174 159.455 162.243 158.758 161.46 157.873C160.677 156.988 160.058 155.933 159.64 154.77C159.221 153.607 159.012 152.36 159.024 151.103C158.999 149.787 159.206 148.479 159.635 147.257C160.064 146.035 160.704 144.924 161.519 143.991C162.333 143.059 163.304 142.323 164.374 141.828C165.444 141.333 166.591 141.09 167.745 141.113C169.514 141.128 171.246 141.695 172.753 142.752L172.242 144.558C170.869 143.463 169.232 142.881 167.556 142.893C165.736 142.963 164.011 143.838 162.747 145.333C161.484 146.828 160.78 148.826 160.787 150.902C160.794 152.978 161.509 154.97 162.783 156.455C164.056 157.939 165.786 158.8 167.607 158.855C168.901 158.892 170.181 158.537 171.315 157.826V153.853C171.315 153.433 171.315 152.663 171.271 152.163C170.32 152.136 170.597 152.136 169.623 152.136C168.462 152.136 167.769 152.136 166.445 152.19C166.492 151.59 166.492 150.985 166.445 150.385C167.791 150.435 168.58 150.464 169.623 150.464C171.13 150.464 171.869 150.435 173.108 150.358C173.014 151.416 172.989 154.769 172.989 156.356V158.736C171.348 160.003 169.4 160.653 167.419 160.594V160.594Z" fill="white"/>
<path d="M180.154 141.369L185.14 150.358L186.855 147.319C187.503 146.208 189.38 142.693 190.033 141.503H192.025L185.954 152.021V156.327C185.954 157.335 185.976 159.397 186.021 160.134H184.12C184.212 158.87 184.256 155.564 184.256 153.845V152.1L181.777 147.711C181.128 146.523 178.95 142.716 178.255 141.553L180.154 141.369Z" fill="white"/>
<path d="M217.121 143.218C215.361 143.164 213.595 143.164 211.487 143.164C211.465 143.8 211.487 144.749 211.487 145.385V156.327C211.487 157.334 211.487 159.396 211.531 160.133H209.654C209.749 158.869 209.772 155.484 209.772 153.763V148.001C209.772 146.681 209.794 144.571 209.749 143.164C207.637 143.164 205.69 143.193 204.021 143.218C204.089 142.623 204.12 142.023 204.112 141.423C206.108 141.472 208.289 141.528 210.627 141.528C212.965 141.528 215.244 141.472 217.279 141.423C217.178 142.015 217.125 142.616 217.121 143.218V143.218Z" fill="white"/>
<path d="M225.24 146.761C226.24 144.249 226.838 142.716 227.328 141.262L227.792 141.102L233.381 155.114C234.099 156.963 234.98 159.075 235.441 160.133L233.584 160.314L231.174 154.184H223.986L223.615 155.161C222.969 156.932 222.221 159.072 221.851 160.128H219.95L225.24 146.761ZM224.618 152.577H230.554L227.586 144.832L224.618 152.577Z" fill="white"/>
<path d="M243.264 150.832V156.327C243.264 157.334 243.287 159.396 243.308 160.133H241.431C241.523 158.869 241.567 155.484 241.567 153.763V147.922C241.567 146.232 241.523 142.823 241.431 141.552C242.058 141.559 242.685 141.524 243.308 141.447C243.286 142.214 243.264 144.301 243.264 145.332V150.325L246.558 146.551C247.881 145.045 249.737 142.906 250.871 141.53H253.088L245.115 150.464L248.825 154.769C250.092 156.303 252.113 158.654 253.391 160.135L251.303 160.315L243.264 150.832Z" fill="white"/>
<path d="M268.611 160.212C267.244 160.133 265.576 160.108 263.953 160.108C262.329 160.108 260.684 160.133 259.385 160.24C259.48 158.976 259.502 155.484 259.502 153.763V147.922C259.502 146.232 259.48 142.685 259.385 141.421C260.685 141.47 262.236 141.526 263.82 141.526C265.404 141.526 266.987 141.47 268.365 141.421C268.265 141.995 268.212 142.579 268.207 143.164C266.862 143.164 265.449 143.137 263.826 143.137C263.153 143.137 261.902 143.137 261.252 143.164C261.228 143.799 261.228 144.776 261.228 145.305V149.559L267.279 149.505C267.234 150.007 267.209 150.644 267.209 151.224L261.23 151.197V156.323C261.23 156.852 261.23 157.831 261.254 158.465C262.017 158.494 263.017 158.494 263.804 158.494C265.635 158.494 267.209 158.465 268.764 158.414C268.666 159.007 268.614 159.609 268.611 160.212V160.212Z" fill="white"/>
<path d="M278.404 160.609C276.808 160.563 275.249 160.045 273.882 159.105L273.999 157.016C275.289 158.158 276.863 158.806 278.496 158.865C278.929 158.93 279.37 158.889 279.788 158.745C280.207 158.601 280.594 158.358 280.923 158.03C281.253 157.702 281.518 157.299 281.7 156.846C281.882 156.393 281.978 155.9 281.98 155.402C281.98 151.359 274.536 151.282 274.536 146.313C274.546 145.589 274.685 144.875 274.946 144.215C275.207 143.555 275.583 142.963 276.052 142.475C276.522 141.987 277.074 141.614 277.674 141.378C278.275 141.143 278.911 141.05 279.544 141.105C280.867 141.108 282.159 141.558 283.257 142.4L282.694 144.119C281.761 143.332 280.637 142.891 279.476 142.855C279.073 142.801 278.665 142.843 278.277 142.979C277.889 143.115 277.531 143.343 277.225 143.647C276.919 143.95 276.673 144.324 276.501 144.743C276.33 145.162 276.237 145.617 276.229 146.08C276.229 149.913 283.673 149.886 283.673 155.146C283.67 155.909 283.528 156.663 283.256 157.361C282.983 158.058 282.587 158.683 282.091 159.197C281.596 159.711 281.012 160.102 280.378 160.345C279.743 160.588 279.071 160.678 278.404 160.609Z" fill="white"/>
<path d="M297.478 151.334C297.478 145.623 300.883 141.104 305.825 141.104C306.883 141.101 307.93 141.342 308.904 141.811C309.878 142.281 310.759 142.969 311.495 143.835C312.231 144.701 312.806 145.727 313.186 146.852C313.566 147.977 313.744 149.178 313.708 150.383C313.708 156.092 310.299 160.61 305.359 160.61C304.302 160.611 303.256 160.37 302.282 159.901C301.309 159.432 300.428 158.744 299.692 157.878C298.957 157.013 298.382 155.987 298.001 154.863C297.621 153.739 297.443 152.539 297.478 151.334V151.334ZM311.945 150.724C311.945 146.018 309.325 142.768 305.684 142.768C301.837 142.768 299.217 146.522 299.217 150.989C299.217 155.668 301.838 158.945 305.497 158.945C309.341 158.945 311.939 155.193 311.939 150.726L311.945 150.724Z" fill="white"/>
<path d="M320.223 141.448L325.697 156.673L329.264 146.549C329.897 144.805 330.564 142.636 330.909 141.553H332.839L327.875 154.981C326.924 157.509 326.392 159.026 325.974 160.479L325.485 160.635L320.293 146.623C319.619 144.774 318.786 142.662 318.341 141.602L320.223 141.448Z" fill="white"/>
<path d="M348.027 160.212C346.66 160.133 344.992 160.108 343.369 160.108C341.745 160.108 340.1 160.133 338.801 160.24C338.896 158.976 338.92 155.484 338.92 153.763V147.922C338.92 146.232 338.896 142.685 338.801 141.421C340.101 141.47 341.652 141.526 343.236 141.526C344.82 141.526 346.403 141.47 347.783 141.421C347.681 141.995 347.628 142.579 347.625 143.164C346.28 143.164 344.867 143.137 343.244 143.137C342.572 143.137 341.321 143.137 340.67 143.164C340.648 143.799 340.648 144.776 340.648 145.305V149.559L346.695 149.505C346.652 150.007 346.628 150.644 346.628 151.224L340.648 151.197V156.323C340.648 156.852 340.648 157.831 340.67 158.465C341.433 158.494 342.434 158.494 343.22 158.494C345.051 158.494 346.628 158.465 348.181 158.414C348.083 159.007 348.031 159.609 348.027 160.212V160.212Z" fill="white"/>
<path d="M363.987 160.317L359.487 152.373H356.449V156.334C356.449 157.342 356.474 159.404 356.497 160.14H354.62C354.715 158.877 354.761 155.491 354.761 153.77V147.929C354.761 146.239 354.716 142.803 354.62 141.535C355.57 141.535 357.629 141.456 358.7 141.431C362.55 141.375 364.612 143.809 364.56 146.609C364.554 147.805 364.21 148.967 363.58 149.924C362.949 150.88 362.066 151.58 361.06 151.919L363.561 156.175C364.167 157.208 365.393 159.164 365.974 160.036L363.987 160.317ZM359.167 150.724C359.633 150.765 360.101 150.695 360.542 150.52C360.983 150.344 361.388 150.066 361.73 149.704C362.072 149.341 362.345 148.901 362.531 148.413C362.717 147.924 362.812 147.396 362.81 146.864C362.81 144.516 361.489 143.137 358.823 143.137C357.989 143.137 357.155 143.137 356.457 143.193V150.724H359.167Z" fill="white"/>
<path d="M400.508 95.4016L415.825 76.1231V0L400.508 19.2461V95.4016Z" fill="white"/>
<path d="M366.313 38.9509L383.216 56.4243H450L433.115 38.9509H366.313Z" fill="white"/>
<path d="M21.8907 119.351C19.8946 120.825 17.5578 121.585 15.1799 121.535C8.76992 121.535 6.11534 117.42 6.11534 110.111V88.0975H0L1.76919 81.377H6.18978L6.85342 73.1417L12.8943 71.2964V81.3752H21.962C21.8179 83.2259 21.7418 85.0713 21.7418 88.0956H12.8959V109.6C12.8959 113.546 14.1519 114.64 16.6576 114.64C18.6238 114.535 20.5308 113.84 22.1853 112.625L21.8907 119.351Z" fill="white"/>
<path d="M54.3129 102.633L34.1977 103.301C34.714 111.116 38.2508 115.065 44.8097 115.065C49.3831 114.925 53.7561 112.895 57.1148 109.354L56.8218 117.25C53.1123 120.231 48.6896 121.843 44.1508 121.868C32.8007 121.868 27.4219 112.71 27.4219 102.211C27.4219 90.113 34.1264 80.5342 44.5895 80.5342C54.6154 80.5342 58.7414 89.1055 58.7414 99.6051L54.3129 102.633ZM52.3964 96.9202C51.6615 90.4488 49.3047 87.0073 44.2157 87.0073C38.7656 87.0073 35.3001 91.5448 34.3434 97.507L52.3964 96.9202Z" fill="white"/>
<path d="M91.5262 91.1236C88.8194 88.6951 85.4674 87.3907 82.0229 87.4257C75.5401 87.4257 70.9707 93.3048 70.9707 100.869C70.9707 110.195 76.4952 115.066 82.533 115.066C84.5286 115.122 86.5131 114.712 88.3639 113.859C90.2148 113.007 91.8926 111.731 93.2938 110.11L93.0008 118.091C89.6928 120.692 85.7404 122.017 81.7236 121.87C79.4331 121.935 77.1546 121.473 75.0244 120.511C72.8941 119.549 70.9558 118.108 69.3253 116.273C67.6947 114.438 66.4055 112.247 65.5346 109.831C64.6637 107.415 64.2291 104.824 64.2566 102.212C64.2566 90.1143 71.8497 80.5355 82.3128 80.5355C86.2707 80.487 90.1488 81.8044 93.4379 84.3146L91.5262 91.1236Z" fill="white"/>
<path d="M124.176 120.361C124.543 116.749 124.692 110.952 124.692 106.078V95.9937C124.692 91.1186 123.289 87.3412 118.795 87.3412C113.928 87.3412 108.693 92.8032 108.693 97.8409V112.212C108.669 114.932 108.769 117.652 108.993 120.361H101.474C101.772 116.749 101.914 111.537 101.914 106.58V74.5719C101.914 69.6967 101.77 64.3196 101.474 60.7084C103.995 60.4992 106.505 60.1376 108.993 59.625C108.773 61.8098 108.693 65.9266 108.693 68.7831V88.6972C109.94 86.3389 111.673 84.3634 113.742 82.9426C115.811 81.5218 118.153 80.6987 120.565 80.5449C127.93 80.5449 131.466 85.7541 131.466 94.4951V111.715C131.466 114.657 131.614 118.185 131.764 120.371L124.176 120.361Z" fill="white"/>
<path d="M156.007 121.872C145.981 121.872 139.647 112.714 139.647 102.214C139.647 90.1166 146.502 80.5378 156.964 80.5378C167.061 80.5378 173.4 89.6959 173.4 100.199C173.4 112.297 166.548 121.872 156.007 121.872ZM156.669 87.3432C150.405 87.3432 146.35 93.3902 146.35 100.954C146.35 110.278 150.335 115.067 156.376 115.067C162.862 115.067 166.692 108.928 166.692 101.288C166.692 92.2924 162.272 87.3432 156.669 87.3432V87.3432Z" fill="white"/>
<path d="M203.983 120.36C204.352 116.749 204.497 110.951 204.497 106.078V95.9935C204.497 91.1183 203.1 87.341 198.599 87.341C193.735 87.341 188.508 92.803 188.508 97.8406V111.704C188.508 114.646 188.578 118.174 188.798 120.36H181.284C181.574 116.749 181.723 110.951 181.723 106.078V95.9935C181.723 91.1183 181.574 85.3223 181.284 81.7093C183.5 81.7079 185.714 81.5674 187.916 81.2885L188.429 88.7674C189.681 86.39 191.423 84.3971 193.504 82.9618C195.585 81.5266 197.942 80.6925 200.37 80.532C207.741 80.532 211.278 85.7412 211.278 94.4822V111.702C211.278 114.644 211.427 118.172 211.571 120.359L203.983 120.36Z" fill="white"/>
<path d="M247.389 86.2486V75.3283C247.389 68.0209 247.389 65.0814 247.24 60.6251C247.679 60.6251 248.564 60.5438 249.152 60.459C249.152 60.459 249.082 66.5981 249.082 71.1266V111.536C249.023 114.423 249.097 117.311 249.304 120.189H247.76L247.391 114.31C245.693 116.578 241.343 121.449 235.154 121.449C226.089 121.449 220.485 113.385 220.485 102.797C220.485 90.8692 227.196 82.3015 237.29 82.3015C240.957 82.2384 244.528 83.6342 247.389 86.2486V86.2486ZM222.185 102.297C222.185 112.461 227.198 119.606 235.379 119.606C240.537 119.606 244.733 115.653 247.392 111.876V88.7638C246.041 87.2517 244.438 86.0639 242.677 85.2706C240.917 84.4772 239.034 84.0945 237.141 84.1451C228.004 84.1505 222.185 92.2144 222.185 102.297Z" fill="white"/>
<path d="M259.317 111.2C259.317 105.319 263 99.4399 275.315 99.4399C277.386 99.4545 279.454 99.6222 281.506 99.9418L281.577 97.5061C281.799 88.516 278.409 84.1447 272.294 84.1447C268.748 84.2754 265.304 85.5255 262.344 87.7559L261.828 85.9051C264.959 83.6279 268.581 82.3784 272.294 82.2939C278.704 82.2939 283.492 86.5786 283.272 96.6574L282.832 113.377C282.756 117.915 283.791 119.092 285.483 119.092C286.495 119.006 287.465 118.598 288.283 117.915L288.209 119.598C287.348 120.369 286.283 120.784 285.188 120.773C282.903 120.773 280.766 119.509 281.359 111.613C280.391 114.431 278.696 116.847 276.498 118.542C274.299 120.237 271.701 121.131 269.047 121.105C262.414 121.112 259.317 116.494 259.317 111.2ZM281.352 105.319L281.422 101.621C279.367 101.36 277.302 101.22 275.235 101.202C264.031 101.202 261.082 106.16 261.082 111.035C261.082 115.401 263.591 119.341 269.339 119.341C272.558 119.28 275.625 117.773 277.876 115.148C280.126 112.524 281.377 108.993 281.357 105.323L281.352 105.319Z" fill="white"/>
<path d="M310.17 119.604C308.59 120.85 306.706 121.496 304.785 121.449C300.29 121.449 297.86 118.428 297.86 113.3V84.8185H292.475L293.066 83.1393H297.928L298.228 74.4867L299.552 74.1509V83.141H309.353C309.202 83.684 309.128 84.2508 309.133 84.8203H299.552V112.713C299.552 117.421 301.769 119.606 305.151 119.606C306.974 119.615 308.754 118.967 310.235 117.755L310.17 119.604Z" fill="white"/>
<path d="M344.435 100.617L318.346 101.286C318.053 112.88 324.094 119.604 332.499 119.604C337.031 119.583 341.393 117.635 344.731 114.14L344.584 116.411C341.083 119.77 336.629 121.561 332.054 121.449C323.066 121.449 316.651 113.721 316.651 102.882C316.651 91.2859 323.137 82.2974 332.648 82.2974C341.125 82.2974 345.769 89.6878 345.769 99.5178L344.435 100.617ZM344.068 98.8497C343.699 89.6915 339.422 84.1499 332.277 84.1499C324.76 84.1499 319.448 91.2876 318.498 99.5214L344.068 98.8497Z" fill="white"/>
<path d="M369.495 84.4849C362.42 84.5715 357.923 93.475 357.923 99.7766V111.705C357.923 114.646 357.923 117.333 357.998 120.361H356.083C356.153 116.749 356.232 110.952 356.232 106.078V97.4203C356.267 92.7103 356.095 88.0013 355.714 83.3112L357.483 82.8056L357.776 93.5581C359.103 89.1867 362.936 82.8056 369.719 82.3L369.495 84.4849Z" fill="white"/>
</svg>
