<svg width="128" height="127" viewBox="0 0 128 127" fill="none" xmlns="http://www.w3.org/2000/svg">
<ellipse cx="64" cy="63.3846" rx="64" ry="63.3846" fill="#54C1BD"/>
<path fill-rule="evenodd" clip-rule="evenodd" d="M61.7301 20.0142C61.411 21.0343 60.9269 22.6011 60.6561 23.4954C60.384 24.3909 58.6622 25.4999 56.8284 25.9601C54.9947 26.4215 51.7265 28.1532 49.5666 29.8078C46.6776 32.0222 45.2926 32.4682 44.3257 31.4944C42.2447 29.3986 40.3768 29.9323 38.2275 33.238C36.4538 35.9624 36.4279 36.5223 37.9896 38.2789C39.3204 39.7757 39.596 42.1206 39.1249 47.9633L38.5042 55.6729L42.5945 55.9552C46.3844 56.2174 46.6435 56.0181 46.117 53.2474C45.8049 51.6023 46.448 47.8874 47.5456 44.9922C52.5074 31.906 68.0875 27.7867 78.6776 36.7607C82.756 40.2169 86.4211 48.9407 85.6038 53.2474C85.0773 56.0181 85.3364 56.2174 89.1264 55.9552L93.2166 55.6729L92.5959 47.9633C92.1248 42.1206 92.4004 39.7757 93.7313 38.2789C95.2929 36.5223 95.267 35.9624 93.4934 33.238C91.344 29.9323 89.4761 29.3986 87.3951 31.4944C86.4282 32.4682 85.0432 32.0376 82.1542 29.8671C79.9943 28.2445 76.6507 26.4084 74.7263 25.7869C72.478 25.0622 70.9859 23.6294 70.5572 21.7815C70.0484 19.586 68.992 18.8163 66.1007 18.5316C63.4637 18.273 62.1341 18.7237 61.7301 20.0142ZM57.2854 38.2101C49.5348 43.0458 47.641 55.1048 53.5473 62.0114L56.2408 65.1617L59.0661 62.493C60.841 60.8158 63.3648 59.8243 65.8604 59.8243C68.3537 59.8243 70.8834 60.817 72.6606 62.493L75.4907 65.1617L78.2359 61.703C82.3403 56.5329 82.9445 51.1385 80.0861 45.1914C78.7671 42.4468 76.1372 39.2799 74.2423 38.152C69.8529 35.5414 61.5158 35.5686 57.2854 38.2101ZM36.6529 61.2476C34.4623 63.4537 34.9828 68.7117 37.6304 71.1242C42.9925 76.0121 51.3132 67.6323 46.4598 62.232C44.0643 59.5657 38.8434 59.0414 36.6529 61.2476ZM85.2611 62.232C80.4077 67.6323 88.7283 76.0121 94.0905 71.1242C96.738 68.7117 97.2585 63.4537 95.068 61.2476C92.8774 59.0414 87.6566 59.5657 85.2611 62.232ZM60.49 66.2897C59.3759 68.0024 58.9142 70.1967 59.3653 71.6283C61.1236 77.21 69.5314 77.6548 71.9563 72.2937C75.1432 65.2495 64.7192 59.7899 60.49 66.2897ZM30.849 78.6215C28.0578 81.646 26.2771 88.2537 27.436 91.2949C28.0048 92.7882 29.9492 93.0669 37.8259 92.787L47.515 92.4418L48.2888 88.6167C48.7151 86.5126 49.9081 83.4928 50.941 81.9058C52.6617 79.2608 52.6593 78.886 50.9139 77.4283C49.755 76.4592 45.9698 75.8259 41.2413 75.8081C34.5412 75.7843 33.1126 76.171 30.849 78.6215ZM80.7527 77.3595C79.1769 78.9453 79.1852 79.4529 80.8199 81.9663C81.8315 83.52 83.0057 86.5126 83.4321 88.6167L84.2058 92.4418L93.895 92.787C101.772 93.0669 103.716 92.7882 104.285 91.2949C105.325 88.5633 103.794 82.156 101.328 78.9275C99.4444 76.4616 98.0653 76.0536 90.8411 75.8318C84.7452 75.6444 82.0494 76.0524 80.7527 77.3595ZM56.5481 80.7553C53.6686 82.787 51.4604 88.4589 51.9315 92.6115L52.3166 96.0001H65.8604H79.4042L79.7894 92.6115C80.2239 88.7804 78.2277 83.1441 75.6826 81.0162C73.3366 79.0556 59.231 78.8634 56.5481 80.7553Z" fill="white"/>
</svg>
