<svg width="128" height="127" viewBox="0 0 128 127" fill="none" xmlns="http://www.w3.org/2000/svg">
<ellipse cx="64" cy="63.3846" rx="64" ry="63.3846" fill="#54C1BD"/>
<path fill-rule="evenodd" clip-rule="evenodd" d="M56.585 24.7142C55.9355 28.7729 55.0388 29.8766 51.7424 30.6803C50.1094 31.0793 49.0926 30.3813 47.0819 27.4854C44.1326 23.2362 43.8531 23.1496 40.8714 25.5598C38.7948 27.2387 38.7395 27.5711 39.8908 31.4069C41.0087 35.1342 40.9486 35.636 39.1735 37.4092C37.3068 39.2719 37.0875 39.2852 33.2139 37.7663C28.8653 36.0608 27.239 36.6064 26.1135 40.1461C25.6642 41.5584 26.3071 42.723 28.5811 44.619C31.2337 46.8293 31.5676 47.5864 31.0096 50.1252C30.4182 52.8116 29.9479 53.124 25.6423 53.6944C21.018 54.3067 20.9236 54.3848 20.9236 57.6083C20.9236 60.7061 21.1439 60.9318 24.7208 61.5032C28.79 62.1527 29.8907 63.0459 30.7005 66.3513C31.0649 67.8398 30.5889 68.8597 29.0647 69.8567C24.594 72.7812 23.7718 74.1335 24.9278 76.6647C26.1144 79.2645 27.7102 79.5397 32.3154 77.937C35.0157 76.997 35.6586 77.1113 37.3908 78.8407C39.309 80.7567 39.3223 80.9529 37.7885 84.8516C36.3158 88.5931 36.3148 89.0055 37.7723 90.613C40.0244 93.0975 41.8968 92.7623 44.7354 89.3683C46.872 86.8133 47.6427 86.4829 50.1733 87.0371C52.8641 87.6275 53.1769 88.097 53.7483 92.3956C54.3616 97.0152 54.4379 97.1066 57.6791 97.1066C61.6957 97.1066 61.8054 96.1972 58.61 89.3445C57.3033 86.5428 56.2302 83.2727 56.2254 82.0785C56.2197 80.8538 55.4872 79.672 54.5467 79.3702C49.4817 77.7456 47.5597 76.6856 44.8098 74.0011C36.0268 65.4276 35.9524 53.2554 44.6314 44.6019C53.4173 35.8408 64.7519 35.8551 73.5597 44.6381C76.7608 47.8302 78.3461 50.3604 79.1559 53.5706C80.1651 57.5731 80.6534 58.1483 83.7506 58.9844C85.6563 59.4986 88.701 60.9385 90.5162 62.1832C94.8743 65.1705 97.2313 64.5363 97.2313 60.3757C97.2313 57.4512 96.9442 57.1446 93.6543 56.5532C91.6875 56.1989 89.5414 55.4847 88.8851 54.9648C87.6098 53.9544 87.2121 48.5625 88.4082 48.5054C88.8012 48.4863 90.3273 47.4873 91.7991 46.2846C94.2295 44.2991 94.3688 43.8658 93.3157 41.5574C92.0423 38.7691 90.5076 38.4682 85.8395 40.0928C83.1487 41.0289 82.4953 40.9175 80.8041 39.2281C78.822 37.2502 78.865 36.6817 81.4699 30.2784C81.9211 29.1709 81.3526 28.1815 79.6118 27.0435C77.1461 25.4303 77.0527 25.4541 73.9078 28.4967C71.2485 31.0698 70.2336 31.4859 67.8719 30.9679C65.3089 30.406 64.9722 29.887 64.4066 25.6341C63.7932 21.0174 63.715 20.9231 60.4863 20.9231C57.3834 20.9231 57.1573 21.1431 56.585 24.7142ZM52.0123 46.9922C45.0578 51.1956 42.9756 58.9025 46.9083 65.8876C48.6719 69.0197 54.2882 73.2993 56.6356 73.2993C56.9084 73.2993 57.9796 71.6394 59.0164 69.6101C61.2636 65.2124 65.4615 61.4927 70.0467 59.8377C73.9193 58.4397 74.0948 57.4702 71.4212 52.2393C70.0314 49.5186 68.2906 47.8673 65.4596 46.5846C60.1305 44.1686 56.503 44.2781 52.0123 46.9922ZM73.1028 62.3136C59.5954 65.8295 54.9883 81.9033 64.481 92.3937C75.7602 104.858 96.2774 96.8391 96.2774 79.9653C96.2774 67.4522 85.3463 59.1263 73.1028 62.3136ZM90.1175 71.4385C91.8621 73.3631 91.7762 73.4955 83.1258 82.1309L74.3685 90.8739L69.585 86.1695C66.9533 83.5822 64.8005 80.9805 64.8005 80.3872C64.8005 79.7939 65.6141 78.5731 66.609 77.6741C68.3316 76.1181 68.572 76.1762 71.6901 78.9093L74.9628 81.7776L81.0617 75.6343C84.4163 72.2546 87.4286 69.4901 87.7558 69.4901C88.0829 69.4901 89.1455 70.3672 90.1175 71.4385Z" fill="white"/>
</svg>
