<svg width="163" height="421" viewBox="0 0 163 421" fill="none" xmlns="http://www.w3.org/2000/svg">
<g clip-path="url(#clip0_376_5969)">
<g opacity="0.5">
<path d="M58.8284 339.914L133.654 317.378L55.2422 281.908L58.8284 339.914Z" stroke="#54C1BD"/>
<path d="M58.8283 339.914L-33.5689 260.4L50.5728 362.556L58.8283 339.914Z" stroke="#54C1BD"/>
<path d="M58.9568 403.343L58.8285 339.914L133.654 317.378L58.9568 403.343Z" stroke="#54C1BD"/>
<path d="M110.685 412.024L133.654 317.377L58.9566 403.342L110.685 412.024Z" stroke="#54C1BD"/>
<path d="M133.654 317.377L55.242 281.907L31.2223 245.691L133.654 317.377Z" stroke="#54C1BD"/>
<path d="M68.9159 239.867L31.2224 245.691L133.654 317.377L68.9159 239.867Z" stroke="#54C1BD"/>
<path d="M31.2224 245.691L-33.5689 260.4L55.2421 281.907L31.2224 245.691Z" stroke="#54C1BD"/>
<path d="M41.0438 209.637L-33.5686 260.4L31.2226 245.691L41.0438 209.637Z" stroke="#54C1BD"/>
<path d="M107.229 188.253L41.0436 209.637L68.9159 239.867L107.229 188.253Z" stroke="#54C1BD"/>
<path d="M57.5017 117.302L72.5936 168.647L41.0436 209.637L57.5017 117.302Z" stroke="#54C1BD"/>
<path d="M107.229 188.253L72.5935 168.647L41.0435 209.637L107.229 188.253Z" stroke="#54C1BD"/>
<path d="M-33.5685 260.4L-5.09567 206.815L41.0439 209.637L28.3363 137.102L-18.2863 174.427L41.0439 209.637" stroke="#54C1BD"/>
<path d="M-5.09552 206.815L-18.2861 174.427L41.0441 209.637L-5.09552 206.815Z" stroke="#54C1BD"/>
<path d="M28.3358 137.102L57.5015 117.302" stroke="#54C1BD"/>
<path d="M41.0439 209.637L28.3363 137.102" stroke="#54C1BD"/>
<path d="M56.3345 64.2487L28.3359 137.102L-5.12258 62.488L56.3345 64.2487Z" stroke="#54C1BD"/>
<path d="M57.5015 117.302L56.3343 64.2488L28.3358 137.102L57.5015 117.302Z" stroke="#54C1BD"/>
<path d="M-18.2869 174.427L-5.12277 62.4881L28.3357 137.102L-18.2869 174.427Z" stroke="#54C1BD"/>
<path d="M56.3345 64.2487L-2.96854 -0.000301781L-5.12263 62.488L56.3345 64.2487Z" stroke="#54C1BD"/>
<path d="M-18.2866 174.427L-78.365 195.013L-5.12251 62.4881L-18.2866 174.427Z" stroke="#54C1BD"/>
<path d="M-133.921 269.062L-33.5689 260.4L-18.2867 174.427L-133.921 269.062Z" stroke="#54C1BD"/>
<path d="M-33.5687 260.4L-35.6895 337.991" stroke="#54C1BD"/>
<path d="M50.5728 362.556L-35.6896 337.991" stroke="#54C1BD"/>
<path d="M50.5729 362.556L58.9568 403.343" stroke="#54C1BD"/>
<path d="M58.9569 403.343L-35.6893 337.991" stroke="#54C1BD"/>
<path d="M58.9568 403.342L110.685 412.025L106.13 436.483L58.9568 403.342Z" stroke="#54C1BD"/>
<path d="M130.609 315.065C131.898 313.22 134.438 312.768 136.283 314.056C138.129 315.344 138.581 317.884 137.292 319.73C136.004 321.575 133.464 322.027 131.618 320.739C129.773 319.451 129.321 316.911 130.609 315.065Z" fill="#54C1BD" stroke="#54C1BD"/>
<path d="M52.5688 280.068C53.857 278.223 56.3973 277.771 58.2427 279.059C60.0882 280.348 60.54 282.888 59.2518 284.733C57.9637 286.579 55.4234 287.031 53.5779 285.742C51.7325 284.454 51.2807 281.914 52.5688 280.068Z" fill="#54C1BD" stroke="#54C1BD"/>
<path d="M55.4962 337.793C56.7843 335.948 59.3246 335.496 61.17 336.784C63.0154 338.072 63.4672 340.613 62.1791 342.458C60.8909 344.303 58.3506 344.755 56.5052 343.467C54.6597 342.179 54.208 339.639 55.4962 337.793Z" fill="#54C1BD" stroke="#54C1BD"/>
<path d="M55.221 401.576C56.5092 399.73 59.0495 399.279 60.8949 400.567C62.7404 401.855 63.1921 404.395 61.9039 406.241C60.6158 408.086 58.0755 408.538 56.2301 407.25C54.3846 405.962 53.9329 403.421 55.221 401.576Z" fill="#54C1BD" stroke="#54C1BD"/>
<path d="M46.4355 361.622C47.7237 359.777 50.264 359.325 52.1094 360.613C53.9549 361.901 54.4067 364.442 53.1185 366.287C51.8304 368.132 49.2901 368.584 47.4446 367.296C45.5992 366.008 45.1474 363.468 46.4355 361.622Z" fill="#54C1BD" stroke="#54C1BD"/>
<path d="M26.7415 242.563C28.0297 240.717 30.57 240.265 32.4154 241.554C34.2609 242.842 34.7126 245.382 33.4244 247.227C32.1363 249.073 29.596 249.525 27.7506 248.237C25.9052 246.948 25.4534 244.408 26.7415 242.563Z" fill="#54C1BD" stroke="#54C1BD"/>
<path d="M-8.04786 204.589C-6.7597 202.744 -4.2194 202.292 -2.37395 203.58C-0.528504 204.868 -0.0767218 207.408 -1.36488 209.254C-2.65304 211.099 -5.19334 211.551 -7.03879 210.263C-8.88423 208.975 -9.33602 206.434 -8.04786 204.589Z" fill="#54C1BD" stroke="#54C1BD"/>
<path d="M37.8064 207.251C39.0945 205.405 41.6348 204.953 43.4803 206.242C45.3257 207.53 45.7775 210.07 44.4894 211.915C43.2012 213.761 40.6609 214.213 38.8155 212.925C36.97 211.636 36.5182 209.096 37.8064 207.251Z" fill="#54C1BD" stroke="#54C1BD"/>
<path d="M65.2939 237.496C66.5821 235.651 69.1224 235.199 70.9678 236.487C72.8133 237.775 73.2651 240.316 71.9769 242.161C70.6888 244.007 68.1485 244.458 66.303 243.17C64.4576 241.882 64.0058 239.342 65.2939 237.496Z" fill="#54C1BD" stroke="#54C1BD"/>
<path d="M104.053 185.882C105.342 184.037 107.882 183.585 109.727 184.873C111.573 186.161 112.025 188.701 110.736 190.547C109.448 192.392 106.908 192.844 105.063 191.556C103.217 190.268 102.765 187.727 104.053 185.882Z" fill="#54C1BD" stroke="#54C1BD"/>
<path d="M68.8789 167.036C70.1671 165.19 72.7074 164.739 74.5528 166.027C76.3983 167.315 76.85 169.855 75.5619 171.701C74.2737 173.546 71.7334 173.998 69.888 172.71C68.0425 171.422 67.5907 168.881 68.8789 167.036Z" fill="#54C1BD" stroke="#54C1BD"/>
<path d="M53.4853 114.843C54.7735 112.997 57.3138 112.546 59.1593 113.834C61.0047 115.122 61.4565 117.662 60.1683 119.508C58.8802 121.353 56.3399 121.805 54.4944 120.517C52.649 119.229 52.1972 116.688 53.4853 114.843Z" fill="#54C1BD" stroke="#54C1BD"/>
<path d="M24.9123 134.757C26.2005 132.912 28.7408 132.46 30.5863 133.748C32.4317 135.037 32.8835 137.577 31.5953 139.422C30.3072 141.268 27.7669 141.72 25.9214 140.431C24.076 139.143 23.6242 136.603 24.9123 134.757Z" fill="#54C1BD" stroke="#54C1BD"/>
<path d="M51.8846 61.0676C53.1728 59.2221 55.7131 58.7704 57.5585 60.0585C59.4039 61.3467 59.8557 63.8869 58.5675 65.7324C57.2793 67.5778 54.7391 68.0296 52.8937 66.7415C51.0482 65.4533 50.5964 62.913 51.8846 61.0676Z" fill="#54C1BD" stroke="#54C1BD"/>
<path d="M-8.05606 60.38C-9.34422 62.2255 -8.89244 64.7658 -7.04699 66.0539C-5.20155 67.3421 -2.66124 66.8903 -1.37308 65.0449C-0.0849238 63.1994 -0.536708 60.6591 -2.38216 59.371C-4.2276 58.0828 -6.7679 58.5346 -8.05606 60.38Z" fill="#54C1BD" stroke="#54C1BD"/>
</g>
</g>
<defs>
<clipPath id="clip0_376_5969">
<rect width="163" height="421" fill="white"/>
</clipPath>
</defs>
</svg>
