<svg width="206" height="433" viewBox="0 0 206 433" fill="none" xmlns="http://www.w3.org/2000/svg">
<g clip-path="url(#clip0_376_5968)">
<g opacity="0.5">
<path d="M86.5555 93.9954L7.57753 142.991L108.592 159.51L86.5555 93.9954Z" stroke="#54C1BD"/>
<path d="M86.5556 93.9959L217.237 156.78L89.0437 65.4409L86.5556 93.9959Z" stroke="#54C1BD"/>
<path d="M66.8164 21.1857L86.5556 93.9955L7.5776 142.991L66.8164 21.1857Z" stroke="#54C1BD"/>
<path d="M4.72359 27.1917L7.57779 142.991L66.8166 21.1857L4.72359 27.1917Z" stroke="#54C1BD"/>
<path d="M7.57743 142.991L108.591 159.51L147.366 193.687L7.57743 142.991Z" stroke="#54C1BD"/>
<path d="M105.873 212.018L147.366 193.687L7.57764 142.991L105.873 212.018Z" stroke="#54C1BD"/>
<path d="M147.366 193.686L217.237 156.779L108.591 159.51L147.366 193.686Z" stroke="#54C1BD"/>
<path d="M147.222 238.129L217.237 156.78L147.365 193.687L147.222 238.129Z" stroke="#54C1BD"/>
<path d="M77.8116 283.132L147.222 238.128L105.873 212.018L77.8116 283.132Z" stroke="#54C1BD"/>
<path d="M156.84 349.262L123.647 294.952L147.222 238.128L156.84 349.262Z" stroke="#54C1BD"/>
<path d="M77.8114 283.132L123.647 294.952L147.222 238.128L77.8114 283.132Z" stroke="#54C1BD"/>
<path d="M217.236 156.779L201.086 227.118L147.222 238.128L184.222 317.512L226.24 260.243L147.222 238.128" stroke="#54C1BD"/>
<path d="M201.086 227.119L226.24 260.243L147.222 238.129L201.086 227.119Z" stroke="#54C1BD"/>
<path d="M184.222 317.513L156.84 349.262" stroke="#54C1BD"/>
<path d="M147.222 238.128L184.222 317.512" stroke="#54C1BD"/>
<path d="M174.568 409.834L184.222 317.512L245.697 392.873L174.568 409.834Z" stroke="#54C1BD"/>
<path d="M156.84 349.262L174.568 409.834L184.222 317.513L156.84 349.262Z" stroke="#54C1BD"/>
<path d="M226.24 260.243L245.697 392.873L184.222 317.512L226.24 260.243Z" stroke="#54C1BD"/>
<path d="M174.568 409.834L262.524 465.308L245.697 392.873L174.568 409.834Z" stroke="#54C1BD"/>
<path d="M226.24 260.243L288.883 218.041L245.697 392.873L226.24 260.243Z" stroke="#54C1BD"/>
<path d="M329.818 115.835L217.237 156.78L226.24 260.243L329.818 115.835Z" stroke="#54C1BD"/>
<path d="M217.237 156.779L195.706 67.0093" stroke="#54C1BD"/>
<path d="M329.818 115.835L195.706 67.0093" stroke="#54C1BD"/>
<path d="M89.0438 65.4404L195.706 67.0093" stroke="#54C1BD"/>
<path d="M89.0434 65.4403L66.8162 21.1855" stroke="#54C1BD"/>
<path d="M66.8163 21.1852L195.706 67.0088" stroke="#54C1BD"/>
<path d="M66.8165 21.1857L4.72343 27.1918L2.40039 -2.30615L66.8165 21.1857Z" stroke="#54C1BD"/>
<path d="M11.8777 144.739C10.9505 147.306 8.11813 148.635 5.55152 147.708C2.98491 146.781 1.65591 143.948 2.58314 141.382C3.51037 138.815 6.3427 137.486 8.90931 138.413C11.4759 139.341 12.8049 142.173 11.8777 144.739Z" fill="#54C1BD" stroke="#54C1BD"/>
<path d="M112.319 160.828C111.392 163.395 108.56 164.724 105.993 163.797C103.426 162.869 102.097 160.037 103.025 157.471C103.952 154.904 106.784 153.575 109.351 154.502C111.917 155.429 113.246 158.262 112.319 160.828Z" fill="#54C1BD" stroke="#54C1BD"/>
<path d="M91.1271 95.4337C90.1999 98.0003 87.3676 99.3293 84.801 98.4021C82.2344 97.4749 80.9054 94.6426 81.8327 92.076C82.7599 89.5094 85.5922 88.1804 88.1588 89.1076C90.7254 90.0348 92.0543 92.8671 91.1271 95.4337Z" fill="#54C1BD" stroke="#54C1BD"/>
<path d="M71.7418 22.0929C70.8146 24.6595 67.9823 25.9885 65.4157 25.0613C62.8491 24.134 61.5202 21.3018 62.4474 18.7351C63.3746 16.1685 66.2069 14.8395 68.7735 15.7668C71.3401 16.694 72.6691 19.5263 71.7418 22.0929Z" fill="#54C1BD" stroke="#54C1BD"/>
<path d="M94.1729 65.2673C93.2456 67.8339 90.4133 69.1628 87.8467 68.2356C85.2801 67.3084 83.9511 64.4761 84.8783 61.9095C85.8055 59.3429 88.6379 58.0139 91.2045 58.9411C93.7711 59.8683 95.1001 62.7007 94.1729 65.2673Z" fill="#54C1BD" stroke="#54C1BD"/>
<path d="M153.568 195.927C152.64 198.494 149.808 199.822 147.241 198.895C144.675 197.968 143.346 195.136 144.273 192.569C145.2 190.003 148.033 188.674 150.599 189.601C153.166 190.528 154.495 193.36 153.568 195.927Z" fill="#54C1BD" stroke="#54C1BD"/>
<path d="M205.253 228.796C204.326 231.362 201.494 232.691 198.927 231.764C196.361 230.837 195.032 228.004 195.959 225.438C196.886 222.871 199.718 221.542 202.285 222.469C204.852 223.397 206.181 226.229 205.253 228.796Z" fill="#54C1BD" stroke="#54C1BD"/>
<path d="M151.766 239.902C150.839 242.469 148.007 243.798 145.44 242.87C142.873 241.943 141.544 239.111 142.472 236.544C143.399 233.978 146.231 232.649 148.798 233.576C151.364 234.503 152.693 237.335 151.766 239.902Z" fill="#54C1BD" stroke="#54C1BD"/>
<path d="M110.854 213.654C109.927 216.221 107.094 217.55 104.528 216.623C101.961 215.696 100.632 212.863 101.559 210.297C102.486 207.73 105.319 206.401 107.885 207.328C110.452 208.256 111.781 211.088 110.854 213.654Z" fill="#54C1BD" stroke="#54C1BD"/>
<path d="M82.2803 284.907C81.3531 287.474 78.5207 288.803 75.9541 287.875C73.3875 286.948 72.0585 284.116 72.9857 281.549C73.913 278.983 76.7453 277.654 79.3119 278.581C81.8785 279.508 83.2075 282.34 82.2803 284.907Z" fill="#54C1BD" stroke="#54C1BD"/>
<path d="M128.5 295.687C127.573 298.254 124.74 299.583 122.174 298.656C119.607 297.728 118.278 294.896 119.205 292.329C120.133 289.763 122.965 288.434 125.532 289.361C128.098 290.288 129.427 293.121 128.5 295.687Z" fill="#54C1BD" stroke="#54C1BD"/>
<path d="M162.301 350.878C161.374 353.444 158.542 354.773 155.975 353.846C153.408 352.919 152.079 350.086 153.007 347.52C153.934 344.953 156.766 343.624 159.333 344.551C161.9 345.479 163.229 348.311 162.301 350.878Z" fill="#54C1BD" stroke="#54C1BD"/>
<path d="M188.967 319.18C188.04 321.746 185.208 323.075 182.641 322.148C180.075 321.221 178.746 318.389 179.673 315.822C180.6 313.255 183.432 311.926 185.999 312.854C188.566 313.781 189.895 316.613 188.967 319.18Z" fill="#54C1BD" stroke="#54C1BD"/>
<path d="M180.75 412.146C179.823 414.712 176.991 416.041 174.424 415.114C171.858 414.187 170.529 411.355 171.456 408.788C172.383 406.221 175.215 404.892 177.782 405.819C180.349 406.747 181.678 409.579 180.75 412.146Z" fill="#54C1BD" stroke="#54C1BD"/>
<path d="M201.662 69.0285C200.735 71.5951 197.902 72.9241 195.336 71.9969C192.769 71.0696 191.44 68.2373 192.367 65.6707C193.295 63.1041 196.127 61.7751 198.693 62.7023C201.26 63.6296 202.589 66.4619 201.662 69.0285Z" fill="#54C1BD" stroke="#54C1BD"/>
</g>
</g>
<defs>
<clipPath id="clip0_376_5968">
<rect width="206" height="433" fill="white"/>
</clipPath>
</defs>
</svg>
