<svg width="36" height="36" viewBox="0 0 36 36" fill="none" xmlns="http://www.w3.org/2000/svg">
<path d="M4.9501 0.00013501C2.23233 0.00013501 0.000139067 2.23232 0.000139067 4.9501V11.2501C-0.00239088 11.4289 0.0306584 11.6065 0.0973665 11.7726C0.164075 11.9386 0.263111 12.0897 0.38872 12.2171C0.514329 12.3444 0.664006 12.4456 0.829052 12.5147C0.994097 12.5837 1.17122 12.6193 1.35013 12.6193C1.52904 12.6193 1.70616 12.5837 1.87121 12.5147C2.03625 12.4456 2.18593 12.3444 2.31154 12.2171C2.43715 12.0897 2.53618 11.9386 2.60289 11.7726C2.6696 11.6065 2.70265 11.4289 2.70012 11.2501V4.9501C2.70012 3.6917 3.69171 2.70011 4.9501 2.70011H11.2501C11.4289 2.70264 11.6066 2.6696 11.7726 2.60289C11.9386 2.53618 12.0897 2.43714 12.2171 2.31153C12.3445 2.18592 12.4456 2.03625 12.5147 1.8712C12.5837 1.70616 12.6193 1.52903 12.6193 1.35012C12.6193 1.17122 12.5837 0.994094 12.5147 0.829048C12.4456 0.664002 12.3445 0.514325 12.2171 0.388716C12.0897 0.263107 11.9386 0.16407 11.7726 0.0973624C11.6066 0.0306544 11.4289 -0.00239494 11.2501 0.00013501H4.9501ZM24.7499 0.00013501C24.5711 -0.00239494 24.3934 0.0306544 24.2274 0.0973624C24.0614 0.16407 23.9103 0.263107 23.7829 0.388716C23.6556 0.514325 23.5544 0.664002 23.4853 0.829048C23.4163 0.994094 23.3807 1.17122 23.3807 1.35012C23.3807 1.52903 23.4163 1.70616 23.4853 1.8712C23.5544 2.03625 23.6556 2.18592 23.7829 2.31153C23.9103 2.43714 24.0614 2.53618 24.2274 2.60289C24.3934 2.6696 24.5711 2.70264 24.7499 2.70011H31.0499C32.3083 2.70011 33.2999 3.6917 33.2999 4.9501V11.2501C33.2974 11.4289 33.3304 11.6065 33.3971 11.7726C33.4638 11.9386 33.5629 12.0897 33.6885 12.2171C33.8141 12.3444 33.9637 12.4456 34.1288 12.5147C34.2938 12.5837 34.471 12.6193 34.6499 12.6193C34.8288 12.6193 35.0059 12.5837 35.171 12.5147C35.336 12.4456 35.4857 12.3444 35.6113 12.2171C35.7369 12.0897 35.8359 11.9386 35.9026 11.7726C35.9693 11.6065 36.0024 11.4289 35.9999 11.2501V4.9501C35.9999 2.23232 33.7677 0.00013501 31.0499 0.00013501H24.7499ZM18 6.30009C15.0219 6.30009 12.6 8.72197 12.6 11.7C12.6 14.6781 15.0219 17.1 18 17.1C20.9781 17.1 23.4 14.6781 23.4 11.7C23.4 8.72197 20.9781 6.30009 18 6.30009ZM13.05 18.9C11.3131 18.9 9.90006 20.313 9.90006 22.05V24.3C9.90006 27.3275 13.4577 29.6999 18 29.6999C22.5423 29.6999 26.0999 27.3275 26.0999 24.3V22.05C26.0999 20.313 24.6869 18.9 22.95 18.9H13.05ZM1.32904 23.3806C0.971302 23.3862 0.630414 23.5336 0.381247 23.7903C0.132079 24.0471 -0.00499261 24.3922 0.000139067 24.75V31.0499C0.000139067 33.7677 2.23233 35.9999 4.9501 35.9999H11.2501C11.4289 36.0024 11.6066 35.9693 11.7726 35.9026C11.9386 35.8359 12.0897 35.7369 12.2171 35.6113C12.3445 35.4857 12.4456 35.336 12.5147 35.171C12.5837 35.0059 12.6193 34.8288 12.6193 34.6499C12.6193 34.471 12.5837 34.2938 12.5147 34.1288C12.4456 33.9637 12.3445 33.8141 12.2171 33.6885C12.0897 33.5629 11.9386 33.4638 11.7726 33.3971C11.6066 33.3304 11.4289 33.2974 11.2501 33.2999H4.9501C3.69171 33.2999 2.70012 32.3083 2.70012 31.0499V24.75C2.70271 24.5693 2.669 24.3899 2.601 24.2225C2.53299 24.0551 2.43206 23.903 2.3042 23.7753C2.17634 23.6476 2.02415 23.5469 1.85664 23.4791C1.68913 23.4113 1.50972 23.3778 1.32904 23.3806ZM34.6288 23.3806C34.271 23.3862 33.9302 23.5336 33.681 23.7903C33.4318 24.0471 33.2948 24.3922 33.2999 24.75V31.0499C33.2999 32.3083 32.3083 33.2999 31.0499 33.2999H24.7499C24.5711 33.2974 24.3934 33.3304 24.2274 33.3971C24.0614 33.4638 23.9103 33.5629 23.7829 33.6885C23.6556 33.8141 23.5544 33.9637 23.4853 34.1288C23.4163 34.2938 23.3807 34.471 23.3807 34.6499C23.3807 34.8288 23.4163 35.0059 23.4853 35.171C23.5544 35.336 23.6556 35.4857 23.7829 35.6113C23.9103 35.7369 24.0614 35.8359 24.2274 35.9026C24.3934 35.9693 24.5711 36.0024 24.7499 35.9999H31.0499C33.7677 35.9999 35.9999 33.7677 35.9999 31.0499V24.75C36.0025 24.5693 35.9687 24.3899 35.9007 24.2225C35.8327 24.055 35.7318 23.903 35.6039 23.7753C35.4761 23.6476 35.3239 23.5469 35.1564 23.4791C34.9889 23.4113 34.8095 23.3778 34.6288 23.3806Z" fill="#3A6178"/>
</svg>
